<svg width="48" height="48" viewBox="0 0 48 48" fill="none" xmlns="http://www.w3.org/2000/svg">
<rect x="0.5" y="0.5" width="47" height="47" rx="7.5" fill="#20313F" fill-opacity="0.3"/>
<rect x="0.5" y="0.5" width="47" height="47" rx="7.5" stroke="url(#paint0_linear_123_1614)"/>
<path d="M34.8749 25.3031C34.8749 24.8422 34.4988 24.4627 34.0345 24.4627H32.818C32.4753 23.5338 31.9405 22.7486 31.7673 22.509C31.4429 22.0556 30.9119 21.7826 30.3516 21.7826H22.7466C22.1864 21.7826 21.6554 22.0552 21.331 22.509C21.1578 22.7486 20.6234 23.5301 20.2803 24.4627H19.0638C18.5991 24.4627 18.2234 24.8426 18.2234 25.3031C18.2234 25.6166 18.3966 25.9038 18.673 26.0478L19.0638 26.2541C19.0049 26.5526 18.979 26.8698 18.979 27.2013V31.2086C18.979 31.614 19.3109 31.9421 19.7163 31.9421H21.0914C21.4968 31.9421 21.8249 31.614 21.8249 31.2086V30.8917C23.2735 30.9765 25.069 31.0612 26.551 31.0612C28.033 31.0612 29.8248 30.9765 31.2734 30.8917V31.2086C31.2734 31.614 31.6015 31.9421 32.0069 31.9421H33.382C33.7874 31.9421 34.1155 31.614 34.1155 31.2086V28.7201C34.1193 28.698 34.1193 28.6721 34.1193 28.65V27.2013C34.1193 26.8695 34.0934 26.5526 34.0345 26.2541L34.4253 26.0478C34.7016 25.9042 34.8749 25.6166 34.8749 25.3031ZM21.928 22.9402C22.1159 22.6785 22.4219 22.5198 22.7463 22.5198H30.3513C30.6756 22.5198 30.9816 22.6785 31.1695 22.9402C31.3135 23.1431 31.7519 23.7806 32.0616 24.5512C30.5354 24.5107 27.9033 24.4627 26.5503 24.4627C25.1973 24.4627 22.5689 24.5107 21.0389 24.5512C21.3449 23.7806 21.7799 23.1431 21.9273 22.9402H21.928ZM23.5278 28.1013C23.4948 28.4625 23.1408 29.1483 22.0533 29.1483C21.541 29.1483 21.0246 28.8791 20.6046 28.3927C20.188 27.9097 19.9263 27.2831 19.9818 26.9107C20.0076 26.7375 20.1366 26.4498 20.7633 26.4645C21.4896 26.4866 23.4359 26.9988 23.5281 28.0312V28.1013H23.5278ZM28.438 29.1483H24.6595C24.1949 29.1483 23.8154 28.7538 23.8154 28.2708C23.8154 27.7878 24.1953 27.3933 24.6595 27.3933H28.438C28.9026 27.3933 29.2821 27.7878 29.2821 28.2708C29.2821 28.7538 28.9023 29.1483 28.438 29.1483ZM32.4933 28.3927C32.0729 28.8795 31.5569 29.1483 31.0446 29.1483C29.9534 29.1483 29.6031 28.4628 29.5701 28.1013V28.0312C29.6624 26.9988 31.6124 26.4866 32.335 26.4645C32.9545 26.4536 33.0906 26.7371 33.1165 26.9107C33.1716 27.2831 32.9099 27.9097 32.4936 28.3927H32.4933Z" fill="white"/>
<path d="M13.8806 25.4839C13.8806 25.8892 14.2125 26.2174 14.6179 26.2174H15.993C16.3984 26.2174 16.7265 25.8892 16.7265 25.4839V25.167C16.9736 25.1816 17.2279 25.1966 17.4896 25.2112C17.5376 24.3855 18.2231 23.7255 19.0639 23.7255H19.7865C19.8345 23.6224 19.8787 23.5192 19.9301 23.4232H19.5615C19.0969 23.4232 18.7174 23.0287 18.7174 22.5457C18.7174 22.0627 19.0972 21.6682 19.5615 21.6682H21.0986C21.5483 21.2737 22.1344 21.0454 22.7464 21.0454H29.0021C28.9909 20.8684 28.9688 20.6951 28.9357 20.5294L29.3265 20.3227C29.6029 20.1791 29.7761 19.8915 29.7761 19.578C29.7761 19.1171 29.4 18.7376 28.9357 18.7376H27.7192C27.3765 17.8087 26.8418 17.0235 26.6685 16.7839C26.3441 16.3305 25.8131 16.0575 25.2529 16.0575H17.6483C17.088 16.0575 16.557 16.3301 16.2326 16.7839C16.0594 17.0235 15.525 17.805 15.1819 18.7376H13.9654C13.5008 18.7376 13.125 19.1175 13.125 19.578C13.125 19.8915 13.2982 20.1787 13.5746 20.3227L13.9654 20.5294C13.9065 20.8279 13.8806 21.1451 13.8806 21.4766V25.4839ZM16.83 17.2151C17.0179 16.9534 17.3239 16.7947 17.6483 16.7947H25.2533C25.5776 16.7947 25.8836 16.9534 26.0715 17.2151C26.2151 17.418 26.6539 18.0555 26.9636 18.8261C25.4374 18.7856 22.8053 18.7376 21.4522 18.7376C20.0992 18.7376 17.4709 18.7856 15.9409 18.8261C16.2469 18.0555 16.6819 17.418 16.8293 17.2151H16.83ZM14.8834 21.1852C14.9093 21.012 15.0382 20.7244 15.6649 20.739C16.3912 20.7611 18.3375 21.2734 18.4297 22.3057V22.3759C18.3967 22.737 18.0427 23.4229 16.9552 23.4229C16.443 23.4229 15.9266 23.1536 15.5066 22.6672C15.09 22.1842 14.8279 21.5576 14.8834 21.1852Z" fill="white"/>
<defs>
<linearGradient id="paint0_linear_123_1614" x1="17" y1="1.47149e-07" x2="33.5" y2="48" gradientUnits="userSpaceOnUse">
<stop stop-color="#FDC65C"/>
<stop offset="1" stop-color="#4A4A4A"/>
</linearGradient>
</defs>
</svg>
