<svg width="48" height="48" viewBox="0 0 48 48" fill="none" xmlns="http://www.w3.org/2000/svg">
<rect x="0.5" y="0.5" width="47" height="47" rx="7.5" fill="#20313F" fill-opacity="0.3"/>
<rect x="0.5" y="0.5" width="47" height="47" rx="7.5" stroke="url(#paint0_linear_123_1623)"/>
<path fill-rule="evenodd" clip-rule="evenodd" d="M24.2731 15.235C22.5675 15.1782 20.8443 15.6435 19.3566 16.6366C17.6856 17.7531 16.5179 19.4019 15.98 21.2451C15.8315 21.227 15.6536 21.235 15.4424 21.2947C14.6539 21.5184 14.0608 22.1646 13.7942 22.7336C13.4483 23.4752 13.3024 24.456 13.4563 25.4686C13.6091 26.4779 14.0355 27.3099 14.5688 27.8264C15.1038 28.3432 15.7078 28.5112 16.3078 28.3851C17.2011 28.1944 17.644 28.0518 17.519 27.2195L16.9134 23.1851C17.0355 21.0016 18.1659 18.9462 20.0566 17.6822C22.5872 15.9918 25.9051 16.1 28.319 17.9531C29.9982 19.2406 30.9731 21.1696 31.0856 23.1947L30.6622 26.0168C29.7176 28.6016 27.376 30.392 24.6664 30.6462H22.8622C22.3966 30.6462 22.0216 31.0211 22.0216 31.4862V31.9294C22.0216 32.3947 22.3966 32.7696 22.8622 32.7696H25.1371C25.6024 32.7696 25.9758 32.3947 25.9758 31.9294V31.6976C28.019 31.199 29.8024 29.9432 30.9638 28.192L31.6926 28.3854C32.2856 28.5392 32.8968 28.3432 33.4315 27.8267C33.9648 27.3099 34.391 26.4782 34.544 25.4688C34.6984 24.4563 34.5483 23.4771 34.2064 22.7339C33.8632 21.9907 33.352 21.5187 32.7619 21.3494C32.5147 21.2782 32.2464 21.252 32.0163 21.2451C31.5299 19.5784 30.5286 18.0627 29.0854 16.956C27.6664 15.8672 25.9787 15.291 24.2731 15.235Z" fill="white"/>
<path fill-rule="evenodd" clip-rule="evenodd" d="M26.9357 22.4931C27.537 22.4931 28.0245 22.9806 28.0258 23.5835C28.0245 24.1849 27.537 24.6737 26.9357 24.6737C26.3328 24.6737 25.844 24.1849 25.844 23.5835C25.844 22.9809 26.333 22.4931 26.9357 22.4931ZM23.9997 22.4931C24.6024 22.4931 25.0898 22.9806 25.0898 23.5835C25.0898 24.1849 24.6024 24.6737 23.9997 24.6737C23.3965 24.6737 22.909 24.1849 22.909 23.5835C22.909 22.9809 23.3965 22.4931 23.9997 22.4931ZM21.0648 22.4931C21.6661 22.4931 22.1549 22.9806 22.1549 23.5835C22.1549 24.1849 21.6661 24.6737 21.0648 24.6737C20.4621 24.6737 19.9744 24.1849 19.9744 23.5835C19.9744 22.9809 20.4621 22.4931 21.0648 22.4931ZM23.9997 17.8099C20.8024 17.8099 18.2258 20.3017 18.2258 23.5835C18.2258 25.1598 18.8218 26.5529 19.7928 27.575L19.4482 29.1195C19.3346 29.6278 19.6872 29.9697 20.144 29.7153L21.6522 28.8739C22.369 29.1851 23.1618 29.3571 23.9997 29.3571C27.1981 29.3571 29.773 26.867 29.773 23.5835C29.773 20.3017 27.1981 17.8099 23.9997 17.8099Z" fill="white"/>
<defs>
<linearGradient id="paint0_linear_123_1623" x1="17" y1="1.47149e-07" x2="33.5" y2="48" gradientUnits="userSpaceOnUse">
<stop stop-color="#FDC65C"/>
<stop offset="1" stop-color="#4A4A4A"/>
</linearGradient>
</defs>
</svg>
