<svg width="48" height="48" viewBox="0 0 48 48" fill="none" xmlns="http://www.w3.org/2000/svg">
<rect x="0.5" y="0.5" width="47" height="47" rx="7.5" fill="#20313F" fill-opacity="0.3"/>
<rect x="0.5" y="0.5" width="47" height="47" rx="7.5" stroke="url(#paint0_linear_123_1606)"/>
<path fill-rule="evenodd" clip-rule="evenodd" d="M24 35C30.0751 35 35 30.0751 35 24C35 17.9249 30.0751 13 24 13C17.9249 13 13 17.9249 13 24C13 30.0751 17.9249 35 24 35ZM25 18C25 17.4477 24.5523 17 24 17C23.4477 17 23 17.4477 23 18V18.5855C21.5888 18.912 20.5 20.1382 20.5 21.6608C20.5 23.1762 21.5949 24.4417 23.0643 24.7503L24.4566 25.0427C25.0935 25.1765 25.5 25.7016 25.5 26.2561C25.5 26.905 24.9401 27.5 24.1626 27.5H24C23.2739 27.5 22.7015 27.0259 22.5446 26.441C22.4016 25.9076 21.8532 25.5911 21.3198 25.7341C20.7864 25.8771 20.4699 26.4255 20.6129 26.959C20.9252 28.1238 21.8444 29.0244 23 29.3588V30C23 30.5523 23.4477 31 24 31C24.5523 31 25 30.5523 25 30V29.3962C26.4169 29.0384 27.5 27.794 27.5 26.2561C27.5 24.7016 26.3768 23.4023 24.8676 23.0854L23.4753 22.793C22.8781 22.6676 22.5 22.1762 22.5 21.6608C22.5 21.0578 23.0211 20.5 23.7508 20.5H24C24.7261 20.5 25.2985 20.9741 25.4554 21.559C25.5984 22.0924 26.1468 22.4089 26.6802 22.2659C27.2136 22.1229 27.5301 21.5745 27.3871 21.041C27.0748 19.8762 26.1556 18.9756 25 18.6412V18Z" fill="white"/>
<defs>
<linearGradient id="paint0_linear_123_1606" x1="17" y1="1.47149e-07" x2="33.5" y2="48" gradientUnits="userSpaceOnUse">
<stop stop-color="#FDC65C"/>
<stop offset="1" stop-color="#4A4A4A"/>
</linearGradient>
</defs>
</svg>
