<svg width="48" height="48" viewBox="0 0 48 48" fill="none" xmlns="http://www.w3.org/2000/svg">
<rect x="0.5" y="0.5" width="47" height="47" rx="7.5" fill="#20313F" fill-opacity="0.3"/>
<rect x="0.5" y="0.5" width="47" height="47" rx="7.5" stroke="url(#paint0_linear_123_1592)"/>
<path d="M19.1001 17.656C18.9721 17.828 18.9041 18.012 18.9041 18.208C18.9041 19.304 21.3041 20.692 23.9961 20.692C26.6881 20.692 29.0881 19.304 29.0881 18.208C29.0881 18.012 29.0201 17.828 28.8921 17.656C29.8081 17.296 30.3921 16.812 30.3921 16.196C30.3961 14.756 27.1761 14 24.0001 14C20.8201 14 17.6001 14.756 17.6001 16.196C17.6001 16.808 18.1881 17.296 19.1001 17.656Z" fill="white"/>
<path d="M24 21.492C22.256 21.492 20.568 20.96 19.448 20.188C19.752 22.228 20.756 25.98 24 25.98C27.24 25.98 28.244 22.228 28.548 20.188C27.428 20.96 25.744 21.492 24 21.492Z" fill="white"/>
<path d="M25.8279 27.812L25.9399 28.832L27.3039 26.152C27.1359 26.04 26.9839 25.896 26.8359 25.736C26.2719 26.22 25.6279 26.536 24.9199 26.684C25.3999 26.808 25.7679 27.244 25.8279 27.812Z" fill="white"/>
<path d="M21.1359 25.7159C20.9799 25.8919 20.8079 26.0599 20.6079 26.1919L22.0359 28.9999L22.1679 27.8119C22.2319 27.2439 22.5959 26.8079 23.0759 26.6839C22.3599 26.5319 21.7079 26.2079 21.1359 25.7159Z" fill="white"/>
<path d="M29.624 27.012L28.032 26.488L24.396 33.624L24.588 34H32.936C33.156 34 33.336 33.82 33.336 33.6V32.144C33.336 29.808 31.844 27.744 29.624 27.012ZM30.684 30.484C30.612 30.54 30.524 30.568 30.436 30.568C30.32 30.568 30.2 30.516 30.124 30.416C29.784 29.988 29.328 29.668 28.804 29.496C28.596 29.428 28.48 29.2 28.548 28.992C28.62 28.78 28.844 28.668 29.056 28.736C29.728 28.956 30.312 29.368 30.752 29.92C30.888 30.096 30.856 30.344 30.684 30.484Z" fill="white"/>
<path d="M25.036 27.9C25.008 27.64 24.84 27.444 24.64 27.444H23.36C23.16 27.444 22.992 27.636 22.964 27.9L22.7 30.3L23.948 32.748L25.28 30.136L25.036 27.9Z" fill="white"/>
<path d="M23.5001 33.624L19.8761 26.52L18.3761 27.012C16.1521 27.744 14.6641 29.808 14.6641 32.144V33.6C14.6641 33.82 14.8401 34 15.0641 34H23.3081L23.5001 33.624ZM19.1921 29.496C18.6681 29.668 18.2121 29.988 17.8761 30.416C17.7961 30.516 17.6801 30.568 17.5601 30.568C17.4721 30.568 17.3841 30.54 17.3121 30.484C17.1401 30.344 17.1081 30.096 17.2481 29.92C17.6841 29.368 18.2681 28.956 18.9441 28.736C19.1521 28.668 19.3801 28.78 19.4481 28.992C19.5161 29.2 19.4041 29.428 19.1921 29.496Z" fill="white"/>
<defs>
<linearGradient id="paint0_linear_123_1592" x1="17" y1="1.47149e-07" x2="33.5" y2="48" gradientUnits="userSpaceOnUse">
<stop stop-color="#FDC65C"/>
<stop offset="1" stop-color="#4A4A4A"/>
</linearGradient>
</defs>
</svg>
