<svg width="48" height="48" viewBox="0 0 48 48" fill="none" xmlns="http://www.w3.org/2000/svg">
<rect x="0.5" y="0.5" width="47" height="47" rx="7.5" fill="#20313F" fill-opacity="0.3"/>
<rect x="0.5" y="0.5" width="47" height="47" rx="7.5" stroke="url(#paint0_linear_123_1585)"/>
<path d="M32.0887 15.9075C32.6787 16.4975 32.6787 17.4475 32.0887 18.0275L28.1987 21.9175L30.3188 31.1075L28.9087 32.5275L25.0287 25.0975L21.1288 28.9975L21.4887 31.4675L20.4188 32.5275L18.6588 29.3475L15.4688 27.5775L16.5287 26.4975L19.0287 26.8675L22.8987 22.9975L15.4688 19.0875L16.8888 17.6775L26.0788 19.7975L29.9688 15.9075C30.5288 15.3275 31.5287 15.3275 32.0887 15.9075Z" fill="white"/>
<defs>
<linearGradient id="paint0_linear_123_1585" x1="17" y1="1.47149e-07" x2="33.5" y2="48" gradientUnits="userSpaceOnUse">
<stop stop-color="#FDC65C"/>
<stop offset="1" stop-color="#4A4A4A"/>
</linearGradient>
</defs>
</svg>
