<svg width="48" height="48" viewBox="0 0 48 48" fill="none" xmlns="http://www.w3.org/2000/svg">
<g clip-path="url(#clip0_661_4645)">
<path d="M24.0365 48C37.3116 48 48.0731 37.2548 48.0731 24C48.0731 10.7452 37.3116 0 24.0365 0C10.7615 0 0 10.7452 0 24C0 37.2548 10.7615 48 24.0365 48Z" fill="#E0E0E0"/>
<path d="M24.0365 47.2705C37.1097 47.2705 47.7077 36.6886 47.7077 23.6353C47.7077 10.5819 37.1097 0 24.0365 0C10.9632 0 0.365234 10.5819 0.365234 23.6353C0.365234 36.6886 10.9632 47.2705 24.0365 47.2705Z" fill="white"/>
<mask id="mask0_661_4645" style="mask-type:luminance" maskUnits="userSpaceOnUse" x="8" y="7" width="32" height="33">
<path d="M39.3791 20.8632H24.4019V27.0638H33.0229C32.2193 31.003 28.8585 33.2644 24.4019 33.2644C19.1416 33.2644 14.9042 29.0334 14.9042 23.7811C14.9042 18.5288 19.1416 14.2978 24.4019 14.2978C26.6668 14.2978 28.7124 15.1003 30.3197 16.4134L34.9955 11.7446C32.1462 9.2644 28.4932 7.73248 24.4019 7.73248C15.4887 7.73248 8.32886 14.8814 8.32886 23.7811C8.32886 32.6808 15.4887 39.8297 24.4019 39.8297C32.4384 39.8297 39.7444 33.9939 39.7444 23.7811C39.7444 22.8328 39.5983 21.8115 39.3791 20.8632Z" fill="white"/>
</mask>
<g mask="url(#mask0_661_4645)">
<path d="M6.86768 33.2644V14.2979L19.2878 23.7811L6.86768 33.2644Z" fill="#FBBC05"/>
</g>
<mask id="mask1_661_4645" style="mask-type:luminance" maskUnits="userSpaceOnUse" x="8" y="7" width="32" height="33">
<path d="M39.3791 20.8632H24.4019V27.0638H33.0229C32.2193 31.003 28.8585 33.2644 24.4019 33.2644C19.1416 33.2644 14.9042 29.0334 14.9042 23.7811C14.9042 18.5288 19.1416 14.2978 24.4019 14.2978C26.6668 14.2978 28.7124 15.1003 30.3197 16.4134L34.9955 11.7446C32.1462 9.2644 28.4932 7.73248 24.4019 7.73248C15.4887 7.73248 8.32886 14.8814 8.32886 23.7811C8.32886 32.6808 15.4887 39.8297 24.4019 39.8297C32.4384 39.8297 39.7444 33.9939 39.7444 23.7811C39.7444 22.8328 39.5983 21.8115 39.3791 20.8632Z" fill="white"/>
</mask>
<g mask="url(#mask1_661_4645)">
<path d="M6.86768 14.2978L19.2878 23.7811L24.4019 19.3313L41.9362 16.4863V6.2735H6.86768V14.2978Z" fill="#EA4335"/>
</g>
<mask id="mask2_661_4645" style="mask-type:luminance" maskUnits="userSpaceOnUse" x="8" y="7" width="32" height="33">
<path d="M39.3791 20.8632H24.4019V27.0638H33.0229C32.2193 31.003 28.8585 33.2644 24.4019 33.2644C19.1416 33.2644 14.9042 29.0334 14.9042 23.7811C14.9042 18.5288 19.1416 14.2978 24.4019 14.2978C26.6668 14.2978 28.7124 15.1003 30.3197 16.4134L34.9955 11.7446C32.1462 9.2644 28.4932 7.73248 24.4019 7.73248C15.4887 7.73248 8.32886 14.8814 8.32886 23.7811C8.32886 32.6808 15.4887 39.8297 24.4019 39.8297C32.4384 39.8297 39.7444 33.9939 39.7444 23.7811C39.7444 22.8328 39.5983 21.8115 39.3791 20.8632Z" fill="white"/>
</mask>
<g mask="url(#mask2_661_4645)">
<path d="M6.86768 33.2644L28.7855 16.4863L34.5572 17.2157L41.9362 6.2735V41.2887H6.86768V33.2644Z" fill="#34A853"/>
</g>
<mask id="mask3_661_4645" style="mask-type:luminance" maskUnits="userSpaceOnUse" x="8" y="7" width="32" height="33">
<path d="M39.3791 20.8632H24.4019V27.0638H33.0229C32.2193 31.003 28.8585 33.2644 24.4019 33.2644C19.1416 33.2644 14.9042 29.0334 14.9042 23.7811C14.9042 18.5288 19.1416 14.2978 24.4019 14.2978C26.6668 14.2978 28.7124 15.1003 30.3197 16.4134L34.9955 11.7446C32.1462 9.2644 28.4932 7.73248 24.4019 7.73248C15.4887 7.73248 8.32886 14.8814 8.32886 23.7811C8.32886 32.6808 15.4887 39.8297 24.4019 39.8297C32.4384 39.8297 39.7444 33.9939 39.7444 23.7811C39.7444 22.8328 39.5983 21.8115 39.3791 20.8632Z" fill="white"/>
</mask>
<g mask="url(#mask3_661_4645)">
<path d="M41.9363 41.2887L19.2879 23.7811L16.3655 21.5927L41.9363 14.2979V41.2887Z" fill="#4285F4"/>
</g>
</g>
<defs>
<clipPath id="clip0_661_4645">
<rect width="48" height="48" fill="white"/>
</clipPath>
</defs>
</svg>
