<svg width="57" height="17" viewBox="0 0 57 17" fill="none" xmlns="http://www.w3.org/2000/svg">
<g clip-path="url(#clip0_290_3109)">
<path d="M12.6771 4.1559V9.39814C12.6771 9.48312 12.6432 9.56461 12.583 9.6247C12.5227 9.68478 12.441 9.71854 12.3558 9.71854H10.6966C10.6114 9.7185 10.5297 9.68474 10.4695 9.62466C10.4092 9.56458 10.3754 9.48311 10.3753 9.39814V0.871384C10.3753 0.786409 10.4092 0.704914 10.4694 0.644827C10.5297 0.584741 10.6114 0.550984 10.6966 0.550984H12.232C12.3172 0.550984 12.3989 0.584741 12.4592 0.644827C12.5194 0.704914 12.5533 0.786409 12.5533 0.871384V2.07218C12.5533 2.07218 13.1022 0.359281 14.7311 0.359281C14.7311 0.359281 16.3423 0.165035 16.9974 1.94857C16.9974 1.94857 17.5463 0.359281 19.2107 0.359281C19.2107 0.359281 21.6858 0.212502 21.6858 2.7668L21.7046 4.17356V9.4158C21.7046 9.50078 21.6708 9.58227 21.6105 9.64236C21.5503 9.70244 21.4686 9.7362 21.3834 9.7362H19.724C19.6388 9.73616 19.5571 9.70239 19.4969 9.64232C19.4366 9.58224 19.4028 9.50076 19.4027 9.4158L19.3876 3.69678C19.4348 2.40176 18.3843 2.49599 18.3843 2.49599C17.0623 2.51958 17.1895 4.17356 17.1895 4.17356V9.4158C17.1895 9.50078 17.1557 9.58227 17.0954 9.64236C17.0352 9.70244 16.9535 9.7362 16.8683 9.7362H15.209C15.1238 9.73616 15.0421 9.70239 14.9819 9.64232C14.9217 9.58224 14.8878 9.50076 14.8878 9.4158V3.82618C14.8878 3.82618 14.9848 2.48412 13.8043 2.48412C13.8044 2.48412 12.6359 2.33112 12.6771 4.1559ZM55.4479 4.14022V9.38232C55.4479 9.46728 55.414 9.54876 55.3538 9.60884C55.2936 9.66891 55.2119 9.70268 55.1267 9.70272L53.401 9.73606C53.3158 9.73602 53.2341 9.70225 53.1739 9.64217C53.1136 9.5821 53.0798 9.50062 53.0798 9.41566V3.82618C53.0798 3.82618 53.1768 2.48412 51.9964 2.48412C51.9964 2.48412 50.8691 2.42874 50.8691 4.53295V9.398C50.869 9.48296 50.8352 9.56444 50.7749 9.62452C50.7147 9.68459 50.633 9.71836 50.5478 9.7184H48.8884C48.8032 9.71836 48.7215 9.68459 48.6613 9.62452C48.6011 9.56444 48.5672 9.48296 48.5672 9.398V0.871384C48.5672 0.78642 48.6011 0.704947 48.6613 0.644868C48.7215 0.58479 48.8032 0.551022 48.8884 0.550984H50.4239C50.5091 0.550984 50.5908 0.584741 50.651 0.644827C50.7113 0.704914 50.7451 0.786409 50.7451 0.871384V2.07218C50.7451 2.07218 51.294 0.359281 52.9229 0.359281C52.9229 0.359281 54.6679 0.0952483 55.2556 1.91537C55.2557 1.91523 55.4479 2.29072 55.4479 4.14022ZM43.4675 0.323964C41.3456 0.323964 39.6253 2.10749 39.6253 5.10948C39.6253 7.75249 40.9533 9.89499 43.4675 9.89499C45.8401 9.89499 47.3096 7.75249 47.3096 5.10948C47.3096 2.16047 45.5895 0.323964 43.4675 0.323964ZM44.8068 5.21543C44.8068 6.34559 44.6651 6.94598 44.6651 6.94598C44.4635 8.1407 43.594 8.14239 43.4658 8.13604C43.3274 8.14155 42.4505 8.12912 42.269 6.94598C42.269 6.94598 42.1274 6.34559 42.1274 5.21543V5.02711C42.1274 3.89696 42.269 3.29656 42.269 3.29656C42.4505 2.11343 43.3275 2.101 43.4658 2.10636C43.594 2.10001 44.4635 2.10156 44.6651 3.29656C44.6651 3.29656 44.8068 3.89696 44.8068 5.02711V5.21543ZM38.6623 2.06031V0.836914C38.6622 0.75195 38.6284 0.670477 38.5681 0.610399C38.5079 0.55032 38.4262 0.516552 38.341 0.516514H32.8565C32.7713 0.516514 32.6895 0.550271 32.6293 0.610357C32.5691 0.670444 32.5352 0.751939 32.5352 0.836914V2.05084C32.5352 2.13581 32.5691 2.21728 32.6293 2.27736C32.6896 2.33744 32.7713 2.37121 32.8565 2.37124H35.7173L32.3311 7.27048C32.3311 7.27048 32.1977 7.4691 32.2021 7.6885V9.17875C32.2021 9.17875 32.18 9.68972 32.761 9.3932C32.761 9.3932 33.793 8.77133 35.5235 8.77133C35.5235 8.77133 37.2325 8.75014 38.3719 9.44674C38.3719 9.44674 38.8448 9.66119 38.8448 9.18963V7.89249C38.8448 7.89249 38.8878 7.5492 38.4363 7.3349C38.4363 7.3349 37.125 6.61668 35.4052 6.7345L38.6623 2.06031ZM9.0947 8.19368L8.57529 7.40511C8.40998 7.1107 8.42188 6.78098 8.42188 6.78098V3.14342C8.49271 0.000173539 4.99871 0.270988 4.99871 0.270988C1.89269 0.270988 1.4339 2.68176 1.4339 2.68176C1.30443 3.16645 1.68093 3.17818 1.68093 3.17818L3.19867 3.33174C3.19867 3.33174 3.45746 3.39079 3.55165 3.08353C3.55165 3.08353 3.75152 2.03177 4.86925 2.03177C6.08542 2.03177 6.07282 3.07279 6.07282 3.07279V3.94428C3.645 4.02523 2.5199 4.69739 2.5199 4.69739C1.02086 5.54501 1.11519 7.22852 1.11519 7.22852C1.11519 9.97141 3.73565 9.8536 3.73565 9.8536C5.41175 9.8536 6.40328 8.62935 6.40328 8.62935C6.69833 9.14753 7.2414 9.64169 7.2414 9.64169C7.51308 9.93553 7.79623 9.68888 7.79623 9.68888L9.02388 8.64122C9.29527 8.4409 9.0947 8.19368 9.0947 8.19368ZM4.55366 8.15977C3.76526 8.15977 3.47219 7.37841 3.60307 6.61047C3.73409 5.84252 4.41456 5.23902 6.07296 5.25668V5.72357C6.13174 7.76323 5.20991 8.15977 4.55366 8.15977ZM31.1442 8.19368L30.625 7.40511C30.4597 7.1107 30.4714 6.78098 30.4714 6.78098V3.14342C30.5422 0.000173539 27.0482 0.270988 27.0482 0.270988C23.9422 0.270988 23.4834 2.68176 23.4834 2.68176C23.354 3.16645 23.7305 3.17818 23.7305 3.17818L25.2482 3.33174C25.2482 3.33174 25.507 3.39079 25.6012 3.08353C25.6012 3.08353 25.8011 2.03177 26.9188 2.03177C28.135 2.03177 28.1224 3.07279 28.1224 3.07279V3.94428C25.6947 4.02523 24.5694 4.69739 24.5694 4.69739C23.0704 5.54501 23.1647 7.22852 23.1647 7.22852C23.1647 9.97141 25.7852 9.8536 25.7852 9.8536C27.4613 9.8536 28.4528 8.62935 28.4528 8.62935C28.748 9.14753 29.2908 9.64169 29.2908 9.64169C29.5625 9.93553 29.8458 9.68888 29.8458 9.68888L31.0733 8.64122C31.3448 8.4409 31.1442 8.19368 31.1442 8.19368ZM26.6032 8.15977C25.8148 8.15977 25.5217 7.37841 25.6526 6.61047C25.7836 5.84252 26.4641 5.23902 28.1224 5.25668V5.72357C28.1813 7.76323 27.2596 8.15977 26.6032 8.15977Z" fill="white"/>
<path d="M35.3222 15.0788C35.3222 15.0788 35.1834 15.3196 35.354 15.3735C35.354 15.3735 35.5466 15.4485 35.7868 15.2261C35.7868 15.2261 37.5389 13.6997 37.5811 10.9206C37.5811 10.9206 37.594 10.5735 37.4543 10.4786C37.4543 10.4786 36.9054 9.99432 34.9317 10.1417C34.9317 10.1417 33.2113 10.2575 32.272 11.0892C32.272 11.0892 32.1876 11.1628 32.1876 11.2574C32.1876 11.2574 32.1674 11.4618 32.6837 11.3733C32.6837 11.3733 34.4039 11.131 35.4278 11.2574C35.4278 11.2574 35.9557 11.3206 36.1034 11.4997C36.1034 11.4997 36.3462 11.6997 36.2194 12.3627C36.2194 12.363 35.871 14.0472 35.3222 15.0788Z" fill="white"/>
<path d="M34.9753 12.4127C34.9753 12.4127 35.2322 12.7447 34.8176 13.031C34.8176 13.031 30.3887 16.5642 22.9523 16.5642C22.9523 16.5642 15.2974 16.9408 8.90565 11.1487C8.90565 11.1487 8.68157 10.9525 8.82066 10.7701C8.82066 10.7701 8.94503 10.6023 9.26699 10.7848C9.26699 10.7848 15.2797 14.5215 23.1765 14.5215C23.1765 14.5215 28.6653 14.7334 34.2958 12.3319C34.2958 12.3319 34.7444 12.1 34.9753 12.4127Z" fill="white"/>
</g>
<defs>
<clipPath id="clip0_290_3109">
<rect width="56.4688" height="16.9406" fill="white"/>
</clipPath>
</defs>
</svg>
