<svg width="57" height="10" viewBox="0 0 57 10" fill="none" xmlns="http://www.w3.org/2000/svg">
<path fill-rule="evenodd" clip-rule="evenodd" d="M56.1943 0.205869L55.9899 2.25785L55.6382 1.8181L55.1694 1.40758L54.584 1.17309L53.9981 1.08507L53.4122 1.17309L52.9732 1.37835L52.8271 1.52483L52.6805 1.70085L52.5634 1.96458V2.43357L52.6805 2.63883L52.8563 2.87333L53.1201 3.07828L53.2661 3.22477L53.5004 3.37125L53.8521 3.60575L54.2911 3.89871L54.672 4.16244L55.023 4.45572L55.3452 4.69021L55.5503 4.9247L55.8432 5.27675L56.0483 5.65743L56.1362 6.06795L56.1943 6.44923L56.1362 7.03577L55.9311 7.56323L55.609 8.00268L55.1694 8.44213L54.6132 8.7354L54.0273 8.94067L53.4125 9.08685L52.71 9.14562L52.1241 9.08685L51.5092 9.02868L50.9239 8.85265L50.2793 8.64739L50.4259 6.44893L50.6309 6.83021L51.0991 7.41614L51.3921 7.6214L51.7432 7.82666L52.417 8.00268H52.856L53.5001 7.97345L53.9981 7.70941L54.1739 7.53339L54.32 7.32813L54.4371 7.09363L54.4669 6.80036L54.379 6.36091L54.086 5.95039L53.7349 5.65712L53.208 5.33461L52.6221 4.98318L52.1831 4.63113L51.8022 4.33816L51.5092 4.0452L51.2163 3.72269L51.0112 3.31217L50.9239 2.93119L50.8652 2.49144L50.9239 1.9052L51.0991 1.37774L51.3921 0.937982L51.8311 0.527463L52.8268 0.146484L53.4122 0.058472L54.027 0L54.6129 0.058472L55.257 0.0877079L55.6087 0.146484H55.8429L56.048 0.204956H56.1943V0.205869ZM50.9531 0.205869L50.8652 0.235105L50.4262 0.67486L50.2211 0.93859L50.0453 1.23156L49.7523 1.55407L49.4892 1.96458L48.6693 3.1663L48.0252 4.25106L47.6444 4.89608L47.4098 5.36477L47.2927 5.92207L47.2635 6.50801L47.2054 7.12348V8.26733L47.2635 8.55999L47.3514 8.79449L47.4393 8.99975H45.0673L45.2133 8.73632L45.3012 8.41381L45.4479 7.91528L45.506 7.27057L45.6526 6.24458V5.33583L45.0667 3.66513L44.6566 2.78562L44.2176 1.90611L43.8367 1.23186L43.5437 0.733636L43.2507 0.352658L43.0165 0.206174L43.8954 0.147702L44.5686 0.0889254L44.9495 0.147702L45.2425 0.294186L45.3596 0.382198L45.4476 0.52868L45.5355 0.733941L45.6526 0.968739L46.0916 1.96519L46.4725 2.78593L46.7067 3.46018L46.9118 3.9584L48.4639 1.46666L48.669 1.08568L48.7271 0.675164V0.382198L48.61 0.206174L50.9531 0.205869ZM43.837 8.99944L42.5191 9.02929L42.0211 8.99944L41.7287 8.79418L41.6408 8.55969L41.4948 8.14917L41.2891 7.62171L41.1139 6.94776L40.9088 6.21504L40.5571 6.30244L40.1181 6.39045L39.5322 6.44923H37.7759L37.6293 6.83051L37.3071 7.53369L37.2484 7.68048L37.1903 7.70972L37.0436 8.20825L37.0144 8.55969L37.0436 8.99914H30.8651L30.9531 8.79388L31.041 8.50121L31.1581 8.14917L31.2454 7.68048L31.3041 7.24103L31.3333 6.65449L31.3921 5.86269L31.48 4.9247L31.5381 4.39724L31.5968 3.31278L31.626 2.49204L31.6847 1.8178V1.31957L31.626 0.93859L31.5968 0.586848L31.5381 0.352351L31.4508 0.205869H33.8222L33.7343 0.352351L33.647 0.586848L33.5298 0.93859L33.4419 1.40758L33.3832 1.84734L33.354 2.49235L33.2953 3.28385L33.2074 4.19259L33.1493 4.7499V5.33583L33.0905 5.86329L33.0613 6.30274V6.65479L33.0026 6.94806V7.38752L33.0613 7.62201L33.1493 7.7688L33.2953 7.82697L33.5883 7.85681H34.0863L34.5253 7.82697H34.8474L35.1112 7.7688L35.5794 7.62201L36.019 7.38752L36.3114 6.83082L36.6631 6.21534L37.0141 5.48262L37.395 4.69082L37.981 3.37155L38.2733 2.84379L38.5079 2.28679L38.7129 1.84703L38.859 1.52453L38.9469 1.17278L39.064 0.938286L39.0932 0.791802L39.1519 0.674556L39.0932 0.440059L39.0053 0.205565H40.9672L42.2851 5.04195L42.5194 5.92177L42.7244 6.65449L42.9003 7.24103L43.1053 7.70972L43.3104 8.14917L43.4862 8.50121L43.6322 8.79388L43.837 8.99944ZM30.2789 6.80097L30.0739 7.38752L29.8396 7.82697L29.4885 8.20825L29.1076 8.55969L28.6686 8.79418L28.1706 8.99944L27.6437 9.08745L27.0581 9.14623L26.2671 9.08745L25.5935 8.85296L24.9495 8.44244L24.4223 7.97375L23.983 7.32843L23.6903 6.68372L23.544 5.951L23.4856 5.18905L23.544 4.10428L23.7782 3.13706L24.1296 2.25755L24.5981 1.52483L25.3012 0.821342L26.1211 0.381587L27.0584 0.0883167L28.083 0.000304372L28.6102 0.0587763L29.1962 0.0880123L29.7815 0.146789L30.2211 0.205261L29.9865 2.43296L29.5764 1.84673L29.1082 1.40697L28.5223 1.17248L27.8783 1.08447L27.2926 1.17248L26.7654 1.40697L26.2677 1.81749L25.8871 2.34495L25.6236 2.87272L25.4478 3.45896L25.3015 4.16244L25.2428 4.89547L25.3015 5.51094L25.4478 6.09749L25.6821 6.59541L25.9747 7.03547L26.3261 7.38691L26.7654 7.6214L27.2047 7.76819L27.7319 7.82636L28.3173 7.70911L28.9613 7.56293L29.5761 7.24042L30.2789 6.80097ZM23.983 9.29271L23.1923 9.32256H21.9623L21.6696 9.23454L21.5233 9.14653L21.3475 8.94127L18.8878 5.51155L18.5656 5.18905L18.3606 5.0718L18.2142 5.04195H18.1555L18.0676 6.39045V6.977L18.0092 7.47553V7.85681L18.0676 8.26733L18.126 8.58984L18.1552 8.85326L18.2724 8.99944H15.9295L16.1054 8.58953L16.2225 8.26702L16.2517 7.85651L16.3688 7.38721L16.398 6.7425L16.4567 5.92177L16.5447 4.92501L16.6034 4.39755L16.6618 3.37155L16.691 2.49204L16.7494 1.8178V1.31957L16.691 0.879814L16.6618 0.586543L16.6034 0.352047L16.5155 0.205565H20.3222L20.8494 0.293577L21.23 0.440059L21.6401 0.64532L21.8744 0.938286L22.0794 1.26079L22.2258 1.61253L22.2553 2.05229L22.2258 2.55052L22.1086 2.93149L21.9328 3.31247L21.7277 3.66422L21.4351 3.95718L21.0545 4.25045L20.6152 4.45572L20.1175 4.63143L20.3225 4.83669L20.5568 5.18874L22.3724 7.53339L22.6946 8.00268L23.046 8.4132L23.251 8.70648L23.4268 8.88189L23.983 9.29271ZM15.3737 8.99944L14.0558 9.02929L13.587 8.99944L13.2943 8.79418L13.1772 8.55969L13.0309 8.14917L12.855 7.62171L12.65 6.94776L12.4157 6.21504L12.1228 6.30244L11.625 6.39045L11.0978 6.44923H9.34092L9.13587 6.83051L8.75529 7.68048L8.60896 8.20794L8.49183 8.55938L8.55024 8.7354L8.60865 8.99883H6.44166L6.70542 8.7354L6.93967 8.4129L7.17393 8.00238L7.46659 7.53308L7.81797 6.94715L8.16935 6.24336L8.49153 5.51064L8.90162 4.68991L9.51646 3.37064L10.0145 2.28587L10.2195 1.84612L10.5122 1.17187L10.6001 0.937373L10.6588 0.790889V0.439146L10.5417 0.204652H12.4449L13.7628 5.04104L14.0263 5.92085L14.4653 7.24012L14.6119 7.7088L14.7875 8.14825L14.9925 8.5003L15.1976 8.79296L15.3737 8.99944ZM6.85206 6.24427L6.79365 6.80097L6.5889 7.32843L6.26673 7.76849L5.82743 8.14917L5.271 8.50121L4.59745 8.73571L3.86548 8.94097L3.0748 8.99914H0L0.117127 8.79388L0.263459 8.55938L0.292664 8.14886L0.409791 7.70941L0.438997 7.26996L0.497712 6.65449L0.585633 5.92177L0.644044 4.92501L0.70276 4.39755L0.731965 3.31308L0.790376 2.49235L0.849092 1.8181V0.880118L0.790681 0.528071L0.70276 0.352351L0.585633 0.205869H4.50953L5.271 0.293882L5.56367 0.440364L5.97376 0.67486L6.26642 0.968131L6.41276 1.40758L6.44196 1.96458V2.28709L6.29563 2.69761L6.11979 2.99088L5.82712 3.31339L5.18278 3.75314L4.45081 4.01687L4.97773 4.10489L5.41703 4.25137L5.82712 4.39785L6.1493 4.63235L6.44196 4.9844L6.64701 5.33583L6.79334 5.77528L6.85206 6.24427ZM40.6158 5.27706L39.7369 2.25755L38.332 5.27706H40.6158ZM20.4984 2.34556L20.4104 1.84734L20.1762 1.52483L19.7664 1.31957L19.1808 1.26079H18.5072L18.4488 1.55407L18.4196 1.99382L18.3609 2.58006L18.3025 3.37155L18.2733 3.95779L18.6539 4.01657L19.0344 3.95779L19.7372 3.75284L20.2057 3.28354L20.352 3.01981L20.4692 2.69731L20.4984 2.34556ZM12.1526 5.27706L11.274 2.25755L9.86845 5.27706H12.1526ZM4.74378 2.25755L4.65586 1.8178L4.36289 1.46605L3.86518 1.31957L3.22083 1.23156L2.60599 1.26079L2.40094 3.13706V3.66452H2.60599L3.42588 3.57651L4.09913 3.31278L4.36259 3.13676L4.59714 2.87302L4.68506 2.58006L4.74378 2.25755ZM4.97803 6.24427V5.92177L4.89011 5.56972L4.50953 5.0718L4.21686 4.92501L3.42618 4.7496H2.31333L2.1962 6.01008L2.16699 6.83082L2.10858 7.62201L2.16699 7.71002L2.34253 7.7688L2.60629 7.85681H3.42618L3.80677 7.7688L4.15815 7.62201L4.45081 7.41675L4.68506 7.24134L4.89011 6.94806L4.97803 6.59602V6.24427Z" fill="white"/>
</svg>
