<svg width="53" height="11" viewBox="0 0 53 11" fill="none" xmlns="http://www.w3.org/2000/svg">
<path d="M5.74417 5.02931C5.74417 4.09405 5.56103 3.40017 5.19467 2.94811C4.82781 2.49654 4.27225 2.27095 3.52514 2.27095H2.73054V7.99019H3.33855C4.16828 7.99019 4.7763 7.74743 5.1635 7.26039C5.55019 6.77424 5.74417 6.03036 5.74417 5.02931ZM8.57817 4.93183C8.57817 6.63576 8.11396 7.94874 7.18542 8.87029C6.25695 9.79228 4.95173 10.2533 3.2692 10.2533H0V0.0432694H3.49747C5.11971 0.0432694 6.37214 0.462442 7.25472 1.30028C8.13691 2.13857 8.57817 3.34854 8.57817 4.93196M17.6339 10.2532H20.2353V0.000377382H17.6339V10.2532ZM23.8899 6.42884C23.8899 7.08254 23.9764 7.58114 24.1493 7.92377C24.3225 8.26691 24.6126 8.43823 25.0205 8.43823C25.4242 8.43823 25.7096 8.26691 25.8759 7.92377C26.0421 7.58114 26.1249 7.08254 26.1249 6.42884C26.1249 5.77854 26.0409 5.28805 25.8724 4.95699C25.7035 4.62492 25.4155 4.45876 25.0071 4.45876C24.6078 4.45876 24.3225 4.62417 24.1492 4.95309C23.9765 5.28252 23.8899 5.77427 23.8899 6.42884ZM28.7726 6.42884C28.7726 7.67428 28.4418 8.6459 27.7783 9.3423C27.1153 10.0391 26.1872 10.3878 24.9941 10.3878C23.85 10.3878 22.9393 10.0315 22.2632 9.31877C21.5864 8.60615 21.2481 7.64309 21.2481 6.4289C21.2481 5.18724 21.5795 4.22248 22.2429 3.53463C22.9063 2.84672 23.8366 2.50283 25.0344 2.50283C25.7745 2.50283 26.4293 2.6622 26.9966 2.9805C27.5644 3.29873 28.0027 3.75469 28.3106 4.34858C28.6189 4.94158 28.7726 5.63546 28.7726 6.42884ZM29.8058 10.2532H32.4076V2.63742H29.8058V10.2532ZM29.8056 1.71619H32.4075V0H29.8056V1.71619ZM37.6788 8.31075C38.0301 8.31075 38.4484 8.2227 38.9364 8.04799V9.96423C38.5856 10.1163 38.2522 10.2252 37.9352 10.2898C37.6182 10.3552 37.2462 10.3876 36.8205 10.3876C35.9469 10.3876 35.3173 10.171 34.9306 9.73857C34.5455 9.30626 34.3524 8.64231 34.3524 7.74636V4.60681H33.4412V2.63811H34.3524V0.693191L36.9742 0.243328V2.63805H38.6342V4.60687H36.9742V7.57114C36.9742 8.06421 37.2094 8.31075 37.6788 8.31075ZM43.7004 8.31075C44.0517 8.31075 44.47 8.2227 44.9581 8.04799V9.96423C44.6077 10.1163 44.2738 10.2252 43.9568 10.2898C43.6393 10.3552 43.2687 10.3876 42.8421 10.3876C41.9687 10.3876 41.339 10.171 40.9531 9.73857C40.5673 9.30626 40.3741 8.64231 40.3741 7.74636V4.60681H39.4625V2.63811H40.3741V0.663758L42.9954 0.243328V2.63805H44.6562V4.60687H42.9954V7.57114C42.9954 8.06421 43.2305 8.31075 43.7004 8.31075ZM48.241 5.50107C48.2765 5.08409 48.3974 4.77857 48.6034 4.58335C48.8105 4.38851 49.066 4.29109 49.3717 4.29109C49.7052 4.29109 49.9702 4.40046 50.1668 4.6209C50.3647 4.84007 50.4678 5.13365 50.476 5.50107H48.241ZM51.9099 3.40067C51.2915 2.80258 50.4141 2.50302 49.2791 2.50302C48.086 2.50302 47.1678 2.84698 46.5243 3.53482C45.8812 4.22273 45.5595 5.20962 45.5595 6.49576C45.5595 7.74114 45.9072 8.70162 46.601 9.37582C47.2952 10.05 48.27 10.3876 49.5254 10.3876C50.1283 10.3876 50.6471 10.347 51.0819 10.2662C51.5141 10.1864 51.9324 10.0419 52.3382 9.83342L51.9385 8.1171C51.6436 8.23597 51.363 8.32735 51.0979 8.38754C50.7151 8.47521 50.295 8.51917 49.8377 8.51917C49.3362 8.51917 48.9404 8.39829 48.6502 8.15647C48.3601 7.91422 48.2055 7.58007 48.1878 7.15455H52.838V5.98514C52.838 4.8602 52.5288 3.9984 51.9099 3.40067ZM12.031 5.50107C12.0665 5.08409 12.1873 4.77857 12.3934 4.58335C12.6 4.38851 12.8559 4.29109 13.1621 4.29109C13.4947 4.29109 13.7598 4.40046 13.9568 4.6209C14.1547 4.84007 14.2573 5.13365 14.2664 5.50107H12.031ZM15.7003 3.40067C15.0814 2.80258 14.2045 2.50302 13.069 2.50302C11.8755 2.50302 10.9578 2.84698 10.3147 3.53482C9.67162 4.22273 9.34944 5.20962 9.34944 6.49576C9.34944 7.74114 9.69673 8.70162 10.3914 9.37582C11.0851 10.05 12.06 10.3876 13.3155 10.3876C13.9182 10.3876 14.4371 10.347 14.8718 10.2662C15.304 10.1864 15.7224 10.0419 16.1286 9.83342L15.7285 8.1171C15.4335 8.23597 15.1529 8.32735 14.8883 8.38754C14.5047 8.47521 14.085 8.51917 13.6276 8.51917C13.1266 8.51917 12.7304 8.39829 12.4402 8.15647C12.1496 7.91422 11.9954 7.58007 11.9777 7.15455H16.6279V5.98514C16.6279 4.8602 16.3188 3.9984 15.7003 3.40067Z" fill="white"/>
</svg>
