<svg width="57" height="25" viewBox="0 0 57 25" fill="none" xmlns="http://www.w3.org/2000/svg">
<path d="M4.62121 5.86009H8.03611V11.6335C6.89581 11.872 6.02258 11.9928 5.06533 11.9928C1.32035 11.9928 0 9.77818 0 6.13266C0 2.21457 1.83048 0 5.47944 0C5.94156 0 6.81479 0.0340703 7.90407 0.204422V3.8995H7.11186L6.66475 2.48713C6.23563 1.1429 5.7255 0.476984 4.91529 0.476984C3.51392 0.476984 2.76973 2.43448 2.76973 6.09859C2.76973 9.77818 3.0668 11.5158 4.89728 11.5158C5.14635 11.5158 5.44043 11.4817 5.7225 11.3981V7.10211L4.61821 6.31849V5.86009H4.62121ZM7.97009 21.359C7.97009 23.6758 6.43669 25.0045 3.72998 25.0045C2.98878 25.0045 1.8995 24.8868 0.87623 24.7134V20.1851H1.66844L1.99852 21.2568C2.73972 23.7253 3.26786 24.543 4.2101 24.543C5.20036 24.543 5.90855 23.6417 5.90855 22.4492C5.90855 21.4798 5.46443 20.7984 4.50718 20.2687L2.85675 19.3488C1.58442 18.6519 0.891233 17.5617 0.891233 16.233C0.891233 14.2228 2.49065 13.0149 5.11634 13.0149C5.7105 13.0149 6.40368 13.0675 7.50797 13.2193V16.9144H6.71576L6.27164 15.502C5.82453 14.0029 5.3474 13.4578 4.47417 13.4578C3.49892 13.4578 2.92277 14.1051 2.92277 15.0405C2.92277 15.8737 3.36988 16.4714 4.24311 16.9825L5.90855 17.952C7.30992 18.7696 7.97009 19.8599 7.97009 21.359ZM15.265 24.0351L15.5951 24.5461V24.8032H13.0714L12.9544 23.8152C12.6903 24.5647 11.9971 25.0076 11.1059 25.0076C9.78556 25.0076 8.96035 24.1559 8.96035 22.759C8.96035 21.3962 9.70154 20.4948 11.9791 19.5749L12.9514 19.1847V17.9086C12.9514 16.7843 12.7533 16.3259 12.1442 16.3259C11.6491 16.3259 11.37 16.5984 10.8899 17.8405L10.3467 19.2311H9.60552V16.4529C10.5778 16.1462 11.553 15.9418 12.3932 15.9418C14.2567 15.9418 15.265 16.8617 15.265 18.5312V24.0351ZM16.2192 7.4614C16.2192 10.3574 14.7189 11.9928 12.7864 11.9928C10.8568 11.9928 9.35645 10.3574 9.35645 7.4614C9.35645 4.56542 10.8568 2.93005 12.7894 2.93005C14.7189 2.93005 16.2192 4.56542 16.2192 7.4614ZM12.9544 22.6041V19.6586L12.6423 19.7949C11.6671 20.2037 11.304 21.1236 11.304 22.4678C11.304 23.4744 11.535 24.0505 12.0782 24.0505C12.6213 24.0505 12.9544 23.5054 12.9544 22.6041ZM13.7946 7.4614C13.7946 4.19065 13.5305 3.3234 12.7894 3.3234C12.0482 3.3234 11.7841 4.19065 11.7841 7.4614C11.7841 10.7322 12.0482 11.5994 12.7894 11.5994C13.5305 11.5994 13.7946 10.7322 13.7946 7.4614ZM22.0798 22.6877L22.3769 22.8426C21.8487 24.4098 21.1735 25.0045 19.8682 25.0045C17.7407 25.0045 16.5523 23.3537 16.5523 20.4732C16.5523 17.5958 17.9387 15.9418 20.1983 15.9418C20.8075 15.9418 21.6177 16.044 22.3108 16.3321V19.228H21.5366L21.2246 18.1378C20.8105 16.6914 20.5824 16.3166 20.1683 16.3166C19.5081 16.3166 18.98 17.2024 18.98 20.5754C18.98 23.2824 19.3761 24.2705 20.3813 24.2705C21.0565 24.2736 21.6327 23.8306 22.0798 22.6877ZM20.2463 11.7883H17.2755V11.5344L17.6056 11.0233V1.51768L17.2755 1.00662V0.749547L19.9162 0.545125V11.0202L20.2463 11.5313V11.7883ZM24.3064 11.9928C22.4909 11.9928 21.4016 10.2892 21.4016 7.37777C21.4016 4.48179 22.5389 2.93314 24.2884 2.93314C25.1796 2.93314 25.6747 3.28933 25.8878 4.00481V1.51768L25.5577 1.00662V0.749547L28.1984 0.545125V11.0202L28.5285 11.5313V11.7852H26.1849L26.0048 10.4906C25.7437 11.5994 25.2486 11.9928 24.3064 11.9928ZM30.0979 24.0351L30.428 24.5461V24.8032H27.4572V24.5461L27.7873 24.0351V17.9024C27.7873 17.1714 27.5742 16.7285 27.0611 16.7285C26.4489 16.7285 26.0048 17.2582 26.0048 18.2958V24.0351L26.3349 24.5461V24.8032H23.3641V24.5461L23.6942 24.0351V14.5294L23.3641 14.0184V13.7644L26.0048 13.56V17.0847C26.3019 16.3538 26.9771 15.9449 27.9343 15.9449C29.2877 15.9449 30.0949 16.8307 30.0949 18.5497V24.0351H30.0979ZM23.8292 7.40874C23.8292 10.4751 24.0933 11.4105 24.8195 11.4105C25.7257 11.4105 25.8908 10.0662 25.8908 7.37467C25.8908 4.76984 25.7107 3.47517 24.8345 3.47517C24.0933 3.47517 23.8292 4.39507 23.8292 7.40874ZM40.3966 11.0202L40.7267 11.5313V11.7852H37.7559V11.5313L38.086 11.0202V4.7017C38.086 4.08844 37.8879 3.71366 37.4258 3.71366C36.8497 3.71366 36.3875 4.2433 36.3875 5.26232V11.0202L36.7176 11.5313V11.7852H33.7468V11.5313L34.0769 11.0202V4.7017C34.0769 4.08844 33.8789 3.71366 33.4168 3.71366C32.8406 3.71366 32.3785 4.2433 32.3785 5.26232V11.0202L32.7086 11.5313V11.7852H29.7378V11.5313L30.0679 11.0202V4.08844L29.7378 3.67959V3.42562L32.1144 3.13447H32.3125L32.3785 4.08844C32.6576 3.33889 33.3507 2.93005 34.293 2.93005C35.2983 2.93005 35.9584 3.4411 36.2555 4.361C36.5016 3.47517 37.2788 2.93005 38.269 2.93005C39.5714 2.93005 40.3966 3.81588 40.3966 5.53488V11.0202ZM37.3118 22.2975C37.3118 23.778 36.3875 25.0045 34.161 25.0045C33.5848 25.0045 32.8076 24.9364 31.6043 24.7134V21.5479H32.2795L32.4925 22.2293C33.0207 23.9669 33.5308 24.6143 34.341 24.6143C35.1002 24.6143 35.5953 24.0505 35.5953 23.1833C35.5953 22.4678 35.2472 21.9754 34.425 21.5139L33.0056 20.7302C32.0994 20.2192 31.6043 19.4201 31.6043 18.432C31.6043 16.8834 32.7776 15.9449 34.7221 15.9449C35.2832 15.9449 36.0094 16.0285 36.8016 16.1989V18.686H36.1265L35.7784 17.7816C35.3823 16.6914 35.0042 16.3352 34.377 16.3352C33.7018 16.3352 33.3057 16.744 33.3057 17.4254C33.3057 18.0046 33.6358 18.3949 34.443 18.8719L35.8444 19.6895C36.7986 20.2533 37.3118 21.0524 37.3118 22.2975ZM47.9886 11.0202L48.3187 11.5313V11.7852H45.795L45.681 10.7972C45.4169 11.5467 44.7237 11.9897 43.8325 11.9897C42.5121 11.9897 41.6869 11.1379 41.6869 9.74101C41.6869 8.3782 42.4281 7.47689 44.7057 6.55699L45.678 6.16673V4.89064C45.678 3.76632 45.4799 3.30792 44.8708 3.30792C44.3756 3.30792 44.0966 3.58048 43.6164 4.8225L43.0733 6.21938H42.3291V3.4442C43.3043 3.13757 44.2766 2.93314 45.1168 2.93314C46.9803 2.93314 47.9886 3.85304 47.9886 5.52249V11.0202ZM45.678 9.58925V6.64371L45.3659 6.77999C44.3936 7.18884 44.0305 8.10874 44.0305 9.45296C44.0305 10.4596 44.2616 11.0388 44.8047 11.0388C45.3479 11.0388 45.678 10.4937 45.678 9.58925ZM56.4688 11.5313V11.7852H53.498V11.5313L53.8281 11.0202V4.88754C53.8281 4.15348 53.615 3.71366 53.1019 3.71366C52.4897 3.71366 52.0456 4.2433 52.0456 5.2809V11.0202L52.3757 11.5313V11.7852H49.4049V11.5313L49.735 11.0202V4.08844L49.4049 3.67959V3.42562L51.7816 3.13447H51.9796L52.0456 4.08844C52.3247 3.33889 53.0029 2.93005 53.9751 2.93005C55.3285 2.93005 56.1357 3.81588 56.1357 5.53488V11.0202L56.4688 11.5313Z" fill="white"/>
</svg>
