<svg width="57" height="20" viewBox="0 0 57 20" fill="none" xmlns="http://www.w3.org/2000/svg">
<path d="M8.73211 9.40235H11.1605V12.8137C10.4028 13.0572 9.4461 13.1907 8.45159 13.1907C4.42107 13.1907 2.05218 9.73866 2.05218 6.36726C2.05218 3.06064 4.19488 0.741245 7.18423 0.741245C9.07584 0.741245 10.1765 1.38218 11.1612 2.27499V3.38798L13.0076 1.54129C11.8397 0.751038 10.1487 0 7.73156 0C2.42539 0 0 3.79676 0 6.91697C0 11.3583 3.23437 14.0338 7.2989 14.0338C9.26968 14.0338 11.0195 13.7329 13.0408 13.1704V9.64591C13.0408 9.46569 13.12 9.34202 13.2384 9.23344L13.8762 8.59551H9.54487L8.73211 9.40235Z" fill="url(#paint0_linear_290_3116)"/>
<path d="M19.6106 4.76611C16.5564 4.76611 14.6641 6.9982 14.6641 9.36745C14.6641 11.4125 16.1886 13.8405 19.2774 13.8405C22.2486 13.8405 24.0716 11.604 24.0716 9.19328C24.0716 6.94769 22.2901 4.76694 19.6106 4.76694V4.76611ZM19.1039 5.41688C21.2572 5.41688 22.2161 8.22273 22.2161 10.224C22.2161 13.2003 19.9837 13.2591 19.7168 13.2591C18.6953 13.2591 17.9813 12.6416 17.4468 11.8316C16.9763 11.0852 16.5165 9.69842 16.5165 8.34338C16.5165 6.99362 16.9582 6.33456 17.6534 5.8497C18.2219 5.48625 18.7541 5.41688 19.1031 5.41688H19.1039Z" fill="url(#paint1_linear_290_3116)"/>
<path d="M39.5757 4.76562C36.9082 4.76562 35.4652 6.45473 35.4652 8.34063C35.4652 9.77635 36.4935 11.3961 38.6151 11.3961H39.1518C39.1518 11.3961 39.0057 11.7512 39.0049 12.0943C39.0049 12.6004 39.1866 12.8846 39.5725 13.3219C35.922 13.5444 34.4548 15.0171 34.4548 16.5998C34.4548 17.9859 35.7818 19.3499 38.5705 19.3499C41.872 19.3499 43.5819 17.5167 43.5819 15.7176C43.5819 14.4493 42.9501 13.7541 41.3503 12.5551C40.8798 12.1894 40.7886 11.9565 40.7886 11.6828C40.7886 11.2907 41.0231 11.0312 41.109 10.9332C41.2606 10.7734 41.5229 10.5909 41.6209 10.5034C42.1585 10.048 42.9177 9.3739 42.9177 8.02858C42.9177 7.10562 42.5339 6.3116 41.6594 5.5681H42.727L43.5292 4.76579H39.5757V4.76562ZM38.8399 5.36585C39.3239 5.36585 39.7279 5.53704 40.1546 5.8922C40.628 6.319 41.3844 7.46592 41.3844 8.88505C41.3844 10.4165 40.1947 10.8358 39.5508 10.8358C39.2357 10.8358 38.858 10.7476 38.5383 10.5289C37.8281 10.0683 37.1231 8.84206 37.1231 7.38296C37.1231 6.06637 37.9072 5.36585 38.8399 5.36585ZM39.8961 13.9033C40.0996 13.9033 40.2459 13.92 40.2459 13.92C40.2459 13.92 40.7262 14.2631 41.0617 14.5194C41.8428 15.1369 42.3297 15.609 42.3297 16.4498C42.3297 17.6058 41.2576 18.5122 39.5213 18.5122C37.6154 18.5122 36.1588 17.6247 36.1588 16.1754C36.1588 14.9749 37.157 13.9417 39.8961 13.9033Z" fill="url(#paint2_linear_290_3116)"/>
<path d="M44.1066 13.5758H47.7684L48.3263 13.0179L47.276 12.8867C46.9933 12.852 46.8253 12.6077 46.8253 12.3709V1.30811C46.8253 1.09019 46.9263 0.978583 47.0001 0.907626L47.6606 0.24707H44.5378L43.7251 1.05995H44.9389V12.5194C44.9389 12.6822 44.8877 12.7931 44.7776 12.9069L44.1066 13.5758Z" fill="url(#paint3_linear_290_3116)"/>
<path d="M52.7299 4.76611C50.6853 4.76611 48.5132 6.32475 48.5132 9.12306C48.5132 11.4342 50.0716 13.8405 52.9833 13.8405C53.7093 13.8405 54.3072 13.747 54.8673 13.4899C55.4682 13.2132 56.0465 12.7637 56.4686 12.1989C55.6718 12.6009 55.0219 12.8648 54.1585 12.8648C52.518 12.8648 50.9362 11.6809 50.3828 9.5047L56.1783 7.16183C55.8436 5.96816 54.8997 4.76611 52.7307 4.76611H52.7299ZM52.3514 5.40631C53.4484 5.40631 54.2415 6.30892 54.2415 7.01548C54.2415 7.24395 54.0983 7.36461 53.8148 7.47621L50.2524 8.91721C50.2524 8.91721 50.156 8.46855 50.156 7.98369C50.156 5.95 51.6262 5.40631 52.3514 5.40631Z" fill="url(#paint4_linear_290_3116)"/>
<path d="M29.9741 4.76611C26.9199 4.76611 25.0276 6.9982 25.0276 9.36745C25.0276 11.4125 26.5521 13.8405 29.6409 13.8405C32.6121 13.8405 34.4351 11.604 34.4351 9.19328C34.4351 6.94769 32.6536 4.76694 29.9741 4.76694V4.76611ZM29.4674 5.41688C31.6207 5.41688 32.5797 8.22273 32.5797 10.224C32.5797 13.2003 30.3473 13.2591 30.0804 13.2591C29.0588 13.2591 28.3448 12.6416 27.8104 11.8316C27.3399 11.0852 26.88 9.69842 26.88 8.34338C26.88 6.99362 27.3217 6.33456 28.0169 5.8497C28.5854 5.48625 29.1177 5.41688 29.4667 5.41688H29.4674Z" fill="url(#paint5_linear_290_3116)"/>
<defs>
<linearGradient id="paint0_linear_290_3116" x1="6.9036" y1="-0.0397258" x2="6.9036" y2="14.033" gradientUnits="userSpaceOnUse">
<stop offset="1" stop-color="white"/>
</linearGradient>
<linearGradient id="paint1_linear_290_3116" x1="19.3336" y1="4.74462" x2="19.3336" y2="13.8443" gradientUnits="userSpaceOnUse">
<stop offset="1" stop-color="white"/>
</linearGradient>
<linearGradient id="paint2_linear_290_3116" x1="38.9848" y1="4.74488" x2="38.9848" y2="19.3555" gradientUnits="userSpaceOnUse">
<stop stop-color="white"/>
</linearGradient>
<linearGradient id="paint3_linear_290_3116" x1="45.9923" y1="0.215696" x2="45.9923" y2="13.5886" gradientUnits="userSpaceOnUse">
<stop stop-color="white"/>
</linearGradient>
<linearGradient id="paint4_linear_290_3116" x1="52.4577" y1="4.74462" x2="52.4577" y2="13.8192" gradientUnits="userSpaceOnUse">
<stop offset="1" stop-color="white"/>
</linearGradient>
<linearGradient id="paint5_linear_290_3116" x1="29.6974" y1="4.76438" x2="29.6974" y2="13.8263" gradientUnits="userSpaceOnUse">
<stop stop-color="white"/>
</linearGradient>
</defs>
</svg>
