<svg width="57" height="23" viewBox="0 0 57 23" fill="none" xmlns="http://www.w3.org/2000/svg">
<path d="M43.9312 0.000701299V11.2229L43.7883 11.3421L43.6453 11.4599L43.5079 11.584L43.3769 11.7082L43.2514 11.8323L43.1267 11.962L43.0076 12.0925L42.8884 12.2222V0.000701299H30.3509V10.2186H29.3137V0H16.7761V10.2347H15.7389V0.000701299H3.20132V11.6668L0 22.2445H2.81307L4.22591 17.5619H4.63168L6.9689 22.2445H10.3671L8.10141 17.5619H13.2405L11.8157 22.2445H14.886L16.2932 17.5738H16.973V17.5619H23.8165L22.4569 22.2325H25.5573L26.8748 17.5619H28.2694L28.3059 22.2325H30.9052L33.8921 17.5619H35.8473L34.834 22.2325H37.886L38.8812 17.5619H40.6465L40.6346 17.8277L40.6409 18.0998L40.6528 18.3593L40.6767 18.6202L40.6942 18.7443L40.7124 18.8684L40.7362 18.9925L40.76 19.1167L40.7895 19.2408L40.8196 19.3593L40.8547 19.4771L40.8911 19.5957L40.9331 19.7142L40.9745 19.8264L41.0222 19.9386L41.0698 20.0452L41.1238 20.1574L41.177 20.264L41.2366 20.3643L41.2962 20.4709L41.362 20.5712L41.4335 20.6658L41.505 20.7661L41.5821 20.8552L41.6599 20.9499L41.7377 21.0382L41.8274 21.1273L41.9164 21.21L42.0299 21.304L42.1428 21.3987L42.2619 21.4878L42.388 21.5705L42.5128 21.6533L42.6382 21.7304L42.7693 21.7949L42.9059 21.8658L43.037 21.9254L43.1744 21.9843L43.3117 22.0376L43.4547 22.0909L43.5976 22.1379L43.7406 22.1799L43.8836 22.2206L44.0272 22.2557L44.3132 22.3216L44.6054 22.3686L44.8913 22.4107L45.1773 22.4457L45.4576 22.4689L45.7323 22.4808L46 22.4927H46.2565L46.6027 22.4871L46.9482 22.4815L47.3 22.464L47.6519 22.4464L48.0037 22.4163L48.3548 22.3868L48.7066 22.3518L49.0584 22.3097L49.4158 22.2627L49.7739 22.2094L50.1313 22.1505L50.4887 22.0916L50.8469 22.0264L51.2043 21.9555L51.5624 21.8847L51.9261 21.8019L52.9872 17.5619H56.4688V0.0014026H43.9312V0.000701299ZM4.36327 17.1243L4.38149 17.0591L4.42354 17.1243H4.36327ZM15.2855 10.8329L15.1067 11.4305L13.4374 16.9286L13.3715 17.1243H7.88696L7.46367 16.2252L13.3715 10.2361H9.57452L4.95405 15.1733L6.45029 10.2361H3.64844V0.443922H15.2855V10.8322V10.8329ZM18.5232 15.4804L18.4335 15.4861L18.3494 15.4917L18.2604 15.4973H17.9324L17.8308 15.5029H17.7355L16.9905 15.4973L17.336 14.2321L17.4972 13.6052L17.8911 12.1325H18.1469L18.2723 12.1275H18.9696L19.3214 12.1332L19.6438 12.1444L19.7868 12.15L19.9234 12.1619L20.0545 12.1801L20.1736 12.1977L20.2816 12.2152L20.3825 12.2447L20.4778 12.2748L20.5619 12.3099L20.6334 12.3449L20.6985 12.3926L20.7581 12.4403L20.8058 12.4992L20.8359 12.5469L20.8597 12.5939L20.8836 12.6472L20.9011 12.7061L20.913 12.7713L20.92 12.8366V12.9838L20.913 13.0673L20.9074 13.15L20.8899 13.2447L20.8716 13.3387L20.8184 13.54L20.7525 13.7644L20.6873 13.9537L20.6151 14.1375L20.5381 14.3086L20.454 14.4685L20.4126 14.5386L20.3706 14.6101L20.3229 14.681L20.2696 14.7462L20.2157 14.8114L20.1624 14.8703L20.1029 14.9292L20.0426 14.9825L19.9774 15.0302L19.9115 15.0835L19.84 15.1249L19.763 15.1719L19.6852 15.214L19.6011 15.249L19.5184 15.2841L19.4287 15.3135L19.3334 15.3493L19.2324 15.3731L19.1245 15.3963L19.0173 15.4201L18.8982 15.4377L18.779 15.4559L18.6536 15.4678L18.5225 15.4797L18.5232 15.4804ZM27.0003 17.1243L28.2225 12.8078L28.2701 17.1243H27.0003ZM28.8602 10.2179H25.9511L23.9475 17.1243H20.8597L21.0027 17.0647L21.1457 17.0058L21.283 16.9469L21.4204 16.8816L21.5514 16.8164L21.6762 16.7393L21.8016 16.6691L21.9208 16.592L22.0399 16.5092L22.1534 16.4265L22.2607 16.3437L22.3679 16.2491L22.4695 16.1607L22.5648 16.0597L22.6601 15.965L22.7498 15.8591L22.8388 15.7582L22.9229 15.646L23 15.5394L23.0771 15.4215L23.1486 15.303L23.2145 15.1845L23.2803 15.0604L23.3399 14.9306L23.3995 14.8002L23.4527 14.6704L23.5004 14.5344L23.5488 14.3927L23.5838 14.2504L23.6258 14.1087L23.656 13.9544L23.6854 13.8071L23.7275 13.5708L23.7625 13.3464L23.787 13.1332L23.8046 12.9319L23.8116 12.7314L23.8046 12.5476L23.7989 12.3646L23.7751 12.1928L23.7513 12.0336L23.7092 11.8737L23.6679 11.7264L23.6083 11.584L23.5424 11.448L23.471 11.3119L23.3876 11.1878L23.2923 11.0693L23.2152 10.9865L23.1374 10.9038L23.0533 10.8336L22.9643 10.7677L22.869 10.7032L22.7737 10.6436L22.672 10.591L22.5711 10.5433L22.4639 10.4963L22.3567 10.4606L22.2431 10.4255L22.1296 10.3897L22.0105 10.3603L21.8913 10.3364L21.7722 10.3126L21.6467 10.2951L21.3902 10.26L21.1344 10.2418L20.8716 10.2242L20.6039 10.2186H17.2232V0.444623H28.8602V10.2179ZM35.9307 17.1243H34.1836L36.8306 12.9852L35.9307 17.1243ZM42.4343 10.4129L42.4287 12.8078L42.2794 13.0147L42.1428 13.2279L42.0054 13.4404L41.8799 13.6536L41.7608 13.8661L41.6417 14.0849L41.5401 14.2981L41.4391 14.5106L41.3438 14.7174L41.2597 14.9306L41.1763 15.1375L41.1048 15.3388L41.0397 15.5394L40.9801 15.7343L40.9261 15.9237L40.8785 16.113L40.8484 16.2371L40.8189 16.3676L40.7888 16.4917L40.765 16.6215L40.7411 16.7456L40.7236 16.8697L40.7054 16.9938L40.6935 17.1243H38.9828L40.4433 10.2354L35.5194 10.2298L31.1133 17.1243H30.791V0.444623H42.4343V10.4129ZM49.1481 19.9442L48.9028 19.9863L48.6526 20.0213L48.4024 20.0564L48.1578 20.0866L47.914 20.1097L47.6687 20.1279L47.4304 20.1399H47.0372L46.8824 20.1343L46.7331 20.1223L46.5845 20.1041L46.4408 20.081L46.3042 20.0571L46.1668 20.0277L46.0358 19.9926L45.9103 19.9505L45.7856 19.9091L45.6664 19.8558L45.5529 19.8025L45.4394 19.738L45.3322 19.6728L45.2305 19.602L45.1352 19.5311L45.0399 19.4484L44.9565 19.3593L44.8731 19.271L44.796 19.17L44.7239 19.0697L44.6587 18.9575L44.5991 18.8453L44.5395 18.7268L44.4919 18.6026L44.4498 18.4666L44.4141 18.3305L44.3783 18.1889L44.3545 18.0416L44.3363 17.8873L44.3244 17.7274L44.3181 17.5619H49.7438L49.1474 19.9449L49.1481 19.9442ZM56.0273 17.1243H53.0944L53.5772 15.1964H47.6988L47.2159 17.1243H44.3727V16.7281L44.4078 16.5625L44.4379 16.397L44.4737 16.2196L44.5094 16.0422L44.5634 15.8472L44.6166 15.6516L44.6762 15.4566L44.7421 15.2673L44.8136 15.0779L44.8906 14.8886L44.9747 14.7062L45.0581 14.5225L45.1535 14.3394L45.2488 14.1676L45.3504 13.9902L45.4632 13.8247L45.5767 13.6592L45.6896 13.4993L45.8157 13.3457L45.9461 13.1984L46.0834 13.0561L46.2208 12.9263L46.3694 12.7959L46.5186 12.6717L46.6735 12.5595L46.8403 12.4529L47.0071 12.3583L47.1802 12.2699L47.3589 12.1872L47.5439 12.1163L47.7345 12.0567L47.9315 12.0097L48.1347 11.9676L48.3429 11.9389L48.5573 11.9207L48.7781 11.915L48.9512 11.9207L49.1236 11.9326L49.2967 11.9564L49.4635 11.9915L49.5476 12.0153L49.6246 12.0392L49.7017 12.063L49.7739 12.0981L49.8454 12.1275L49.9169 12.1696L49.9821 12.2103L50.0479 12.2524L50.1075 12.305L50.1671 12.3583L50.221 12.4116L50.2743 12.4768L50.322 12.5357L50.364 12.6065L50.3997 12.6837L50.4355 12.7608L50.4656 12.8429L50.4894 12.9319L50.507 13.0203L50.5252 13.1213L50.5315 13.2216V13.4404L50.5196 13.5589H54.0251L54.0783 13.3162L54.126 13.0385L54.1498 12.8906L54.1617 12.7307L54.1736 12.5715V12.406L54.168 12.2341L54.1505 12.0567L54.1323 11.974L54.1204 11.8856L54.0965 11.7965L54.0727 11.7082L54.0433 11.6135L54.0131 11.5244L53.9781 11.4361L53.9361 11.347L53.894 11.2586L53.84 11.1696L53.7868 11.0812L53.7272 10.9928L53.6557 10.8982L53.5786 10.8091L53.5001 10.7207L53.4167 10.638L53.3277 10.5552L53.2324 10.4781L53.1371 10.4073L53.0355 10.3364L52.9283 10.2656L52.8211 10.206L52.7075 10.1471L52.5884 10.0882L52.4692 10.0349L52.3438 9.98157L52.2127 9.93388L52.0817 9.8869L51.9506 9.84482L51.8077 9.80975L51.6703 9.77469L51.521 9.73892L51.3725 9.70947L51.2232 9.68001L51.0683 9.65617L50.9071 9.63864L50.5792 9.60287L50.2456 9.57342L49.8938 9.56149L49.5363 9.55588L49.2679 9.56149L48.9876 9.5671L48.6954 9.58464L48.3912 9.60848L48.0758 9.64355L47.7535 9.68562L47.4255 9.73822L47.0919 9.80975L46.9251 9.84482L46.752 9.8869L46.5852 9.93388L46.4121 9.98087L46.239 10.0342L46.0666 10.0931L45.8935 10.1527L45.7267 10.2172L45.5536 10.2887L45.3805 10.3659L45.2137 10.4423L45.0406 10.5251L44.8738 10.6134L44.707 10.7081L44.5402 10.8028L44.3734 10.9094V0.443922H56.028V17.1236L56.0273 17.1243Z" fill="white"/>
</svg>
