<svg width="57" height="13" viewBox="0 0 57 13" fill="none" xmlns="http://www.w3.org/2000/svg">
<g clip-path="url(#clip0_290_3124)">
<path d="M19.9363 6.96932L19.5997 7.9261H19.5716C19.5155 7.71036 19.4127 7.38205 19.2444 6.98808L17.4398 2.43869H15.6726V9.68958H16.8414V5.21522C16.8414 4.93382 16.8414 4.61489 16.832 4.22092C16.8227 4.02394 16.804 3.87386 16.7946 3.76129H16.8227C16.8788 4.0427 16.9442 4.24906 16.991 4.38039L19.1602 9.67082H19.983L22.1336 4.33349C22.1803 4.21154 22.2271 3.96766 22.2738 3.76129H22.3019C22.2738 4.29596 22.2551 4.77436 22.2458 5.06514V9.66144H23.4894V2.41993H21.7876L19.9363 6.96932ZM24.6675 4.46481H25.883V9.66144H24.6675V4.46481ZM25.2846 2.26984C25.0789 2.26984 24.9106 2.34488 24.7703 2.47621C24.6301 2.60753 24.5553 2.77637 24.5553 2.98274C24.5553 3.17972 24.6301 3.34856 24.7703 3.47989C24.9106 3.61121 25.0789 3.67687 25.2846 3.67687C25.4903 3.67687 25.668 3.60183 25.7989 3.47989C25.9391 3.34856 26.0139 3.17972 26.0139 2.98274C26.0139 2.78575 25.9391 2.61691 25.7989 2.47621C25.6773 2.34488 25.4996 2.26984 25.2846 2.26984ZM30.1934 4.41791C29.969 4.37101 29.7353 4.34287 29.5109 4.34287C28.9592 4.34287 28.4543 4.46481 28.0335 4.70869C27.6128 4.95258 27.2762 5.29027 27.0611 5.71238C26.8367 6.14387 26.7245 6.64102 26.7245 7.21321C26.7245 7.71036 26.8367 8.15123 27.0518 8.55458C27.2668 8.94854 27.566 9.26747 27.9681 9.48322C28.3515 9.69896 28.8003 9.81152 29.3052 9.81152C29.8849 9.81152 30.3804 9.68958 30.7732 9.46446L30.7825 9.45508V8.32945L30.7358 8.36697C30.5581 8.49829 30.3524 8.61086 30.1467 8.67652C29.9316 8.75156 29.7353 8.78908 29.567 8.78908C29.0808 8.78908 28.6974 8.64838 28.4263 8.33883C28.1458 8.03867 28.0055 7.62594 28.0055 7.11003C28.0055 6.57535 28.1458 6.15324 28.4356 5.8437C28.7255 5.53415 29.1088 5.37469 29.5763 5.37469C29.969 5.37469 30.3711 5.50601 30.7358 5.76866L30.7825 5.80618V4.61489L30.7732 4.60551C30.6142 4.53985 30.4365 4.46481 30.1934 4.41791ZM34.2047 4.38039C33.9055 4.38039 33.625 4.47419 33.3819 4.67117C33.1761 4.84002 33.0359 5.0839 32.9143 5.37469H32.905V4.46481H31.6895V9.66144H32.905V7.00684C32.905 6.55659 32.9985 6.18139 33.2042 5.90936C33.4099 5.62795 33.6717 5.48725 33.9896 5.48725C34.1018 5.48725 34.214 5.51539 34.3543 5.53415C34.4852 5.57167 34.5787 5.60919 34.6441 5.65609L34.6909 5.69361V4.47419L34.6628 4.46481C34.5787 4.40853 34.4104 4.38039 34.2047 4.38039ZM37.5146 4.35225C36.6638 4.35225 35.9812 4.60551 35.5043 5.10266C35.0181 5.59981 34.7844 6.28457 34.7844 7.14755C34.7844 7.95424 35.0275 8.61086 35.495 9.08925C35.9625 9.55826 36.5983 9.80214 37.3931 9.80214C38.2252 9.80214 38.8891 9.54888 39.366 9.04235C39.8522 8.53582 40.0859 7.86044 40.0859 7.0256C40.0859 6.20015 39.8615 5.54353 39.4034 5.06514C38.9639 4.58675 38.3188 4.35225 37.5146 4.35225ZM38.4871 8.34821C38.2626 8.639 37.9073 8.7797 37.4679 8.7797C37.0284 8.7797 36.6731 8.639 36.4207 8.32945C36.1682 8.03867 36.0467 7.61656 36.0467 7.08188C36.0467 6.52845 36.1776 6.10634 36.4207 5.80618C36.6731 5.50601 37.0191 5.35593 37.4585 5.35593C37.8886 5.35593 38.2252 5.49663 38.4684 5.78742C38.7115 6.0782 38.8424 6.50031 38.8424 7.05374C38.8237 7.61656 38.7208 8.05743 38.4871 8.34821ZM42.7975 6.62225C42.4141 6.46279 42.171 6.34085 42.0588 6.23767C41.9653 6.14386 41.9186 6.01254 41.9186 5.8437C41.9186 5.70299 41.9747 5.56229 42.1149 5.46849C42.2552 5.37469 42.4141 5.32779 42.6479 5.32779C42.8536 5.32779 43.0686 5.36531 43.2743 5.42159C43.48 5.47787 43.6671 5.56229 43.8167 5.67485L43.8634 5.71238V4.56799L43.8354 4.55861C43.6951 4.50233 43.5081 4.44605 43.2837 4.39915C43.0593 4.36163 42.8536 4.34287 42.6853 4.34287C42.1056 4.34287 41.6287 4.48357 41.2547 4.79312C40.8807 5.0839 40.703 5.47787 40.703 5.9375C40.703 6.18139 40.7404 6.39713 40.8246 6.57535C40.9088 6.75358 41.0303 6.92242 41.1986 7.06312C41.3669 7.19445 41.61 7.34453 41.9466 7.48523C42.2271 7.60718 42.4422 7.70098 42.5731 7.77602C42.704 7.85106 42.7881 7.93548 42.8536 8.00114C42.9003 8.07619 42.9284 8.16999 42.9284 8.29193C42.9284 8.639 42.6666 8.80784 42.1336 8.80784C41.9279 8.80784 41.7129 8.77032 41.4604 8.6859C41.208 8.60148 40.9742 8.47953 40.7778 8.33883L40.7311 8.30131V9.4926L40.7591 9.50198C40.9368 9.5864 41.1519 9.64268 41.4137 9.70834C41.6755 9.75524 41.9092 9.79276 42.1149 9.79276C42.7414 9.79276 43.2556 9.65206 43.6203 9.34251C43.9943 9.04235 44.1907 8.65776 44.1907 8.16061C44.1907 7.81354 44.0972 7.50399 43.8915 7.26949C43.6203 7.04436 43.2837 6.80986 42.7975 6.62225ZM47.3978 4.35225C46.5469 4.35225 45.8643 4.60551 45.3875 5.10266C44.9106 5.59981 44.6675 6.28457 44.6675 7.14755C44.6675 7.95424 44.9106 8.61086 45.3781 9.08925C45.8456 9.55826 46.4815 9.80214 47.2762 9.80214C48.1084 9.80214 48.7723 9.54888 49.2491 9.04235C49.7353 8.53582 49.9691 7.86044 49.9691 7.0256C49.9691 6.20015 49.7447 5.54353 49.2865 5.06514C48.8471 4.58675 48.2019 4.35225 47.3978 4.35225ZM48.3608 8.34821C48.1364 8.639 47.7811 8.7797 47.3417 8.7797C46.8929 8.7797 46.5469 8.639 46.2945 8.32945C46.042 8.03867 45.9204 7.61656 45.9204 7.08188C45.9204 6.52845 46.0514 6.10634 46.2945 5.80618C46.5469 5.50601 46.8929 5.35593 47.3323 5.35593C47.7531 5.35593 48.099 5.49663 48.3421 5.78742C48.5853 6.0782 48.7162 6.50031 48.7162 7.05374C48.7162 7.61656 48.5946 8.05743 48.3608 8.34821ZM56.4675 5.46849V4.46481H55.2426V2.92646L55.2052 2.93584L54.0458 3.2829L54.0177 3.29228V4.46481H52.1851V3.80819C52.1851 3.50803 52.2599 3.27352 52.3908 3.12344C52.5217 2.97336 52.718 2.89832 52.9611 2.89832C53.1294 2.89832 53.3071 2.93584 53.5034 3.02026L53.5502 3.0484V1.98844L53.5221 1.97906C53.3538 1.92277 53.1294 1.88525 52.8396 1.88525C52.4749 1.88525 52.157 1.96968 51.8672 2.11038C51.5773 2.26984 51.3623 2.48559 51.2033 2.77637C51.0443 3.05778 50.9602 3.37671 50.9602 3.74253V4.46481H50.1093V5.45911H50.9602V9.66144H52.1851V5.46849H54.0177V8.14185C54.0177 9.23933 54.532 9.79276 55.5605 9.79276C55.7288 9.79276 55.9064 9.76462 56.0747 9.73648C56.2524 9.69896 56.3833 9.65206 56.4581 9.61454L56.4675 9.60516V8.60148L56.4207 8.639C56.3459 8.6859 56.2805 8.72342 56.1683 8.75156C56.0747 8.7797 55.9906 8.78908 55.9251 8.78908C55.682 8.78908 55.5137 8.7328 55.3922 8.5921C55.28 8.46077 55.2239 8.24503 55.2239 7.9261V5.46849H56.4675Z" fill="white"/>
<path d="M0.00170898 0H5.73337V5.75006H0.00170898V0Z" fill="white"/>
<path d="M6.33179 0H12.0634V5.75006H6.33179V0Z" fill="white"/>
<path d="M0.00170898 6.35059H5.73337V12.1006H0.00170898V6.35059Z" fill="white"/>
<path d="M6.33179 6.35059H12.0634V12.1006H6.33179V6.35059Z" fill="white"/>
</g>
<defs>
<clipPath id="clip0_290_3124">
<rect width="56.6369" height="12.0647" fill="white"/>
</clipPath>
</defs>
</svg>
