<svg width="81" height="81" viewBox="0 0 81 81" fill="none" xmlns="http://www.w3.org/2000/svg">
<rect width="4" height="4" fill="#747474"/>
<rect x="19.1743" width="4" height="4" fill="#747474"/>
<rect x="38.3489" width="4" height="4" fill="#747474"/>
<rect x="57.5232" width="4" height="4" fill="#747474"/>
<rect x="76.6978" width="4" height="4" fill="#747474"/>
<rect y="19.1743" width="4" height="4" fill="#747474"/>
<rect x="19.1743" y="19.1743" width="4" height="4" fill="#747474"/>
<rect x="38.3489" y="19.1743" width="4" height="4" fill="#747474"/>
<rect x="57.5232" y="19.1743" width="4" height="4" fill="#747474"/>
<rect x="76.6978" y="19.1743" width="4" height="4" fill="#747474"/>
<rect y="38.3486" width="4" height="4" fill="#747474"/>
<rect x="19.1743" y="38.3486" width="4" height="4" fill="#747474"/>
<rect x="38.3489" y="38.3486" width="4" height="4" fill="#747474"/>
<rect x="57.5232" y="38.3486" width="4" height="4" fill="#747474"/>
<rect x="76.6978" y="38.3486" width="4" height="4" fill="#747474"/>
<rect y="57.5234" width="4" height="4" fill="#747474"/>
<rect x="19.1743" y="57.5234" width="4" height="4" fill="#747474"/>
<rect x="38.3489" y="57.5234" width="4" height="4" fill="#747474"/>
<rect x="57.5232" y="57.5234" width="4" height="4" fill="#747474"/>
<rect x="76.6978" y="57.5234" width="4" height="4" fill="#747474"/>
<rect y="76.6978" width="4" height="4" fill="#747474"/>
<rect x="19.1743" y="76.6978" width="4" height="4" fill="#747474"/>
<rect x="38.3489" y="76.6978" width="4" height="4" fill="#747474"/>
<rect x="57.5232" y="76.6978" width="4" height="4" fill="#747474"/>
<rect x="76.6978" y="76.6978" width="4" height="4" fill="#747474"/>
</svg>
