<svg width="136" height="40" viewBox="0 0 136 40" fill="none" xmlns="http://www.w3.org/2000/svg">
<g clip-path="url(#clip0_123_1788)">
<path d="M130.634 40H5.63354C2.88354 40 0.633545 37.75 0.633545 35V5C0.633545 2.25 2.88354 0 5.63354 0H130.634C133.384 0 135.634 2.25 135.634 5V35C135.634 37.75 133.384 40 130.634 40Z" fill="black"/>
<path d="M130.634 0.8C131.747 0.8 132.816 1.2425 133.603 2.03015C134.391 2.8178 134.834 3.88609 134.834 5V35C134.834 36.1139 134.391 37.1822 133.603 37.9698C132.816 38.7575 131.747 39.2 130.634 39.2H5.63354C4.51964 39.2 3.45135 38.7575 2.6637 37.9698C1.87604 37.1822 1.43355 36.1139 1.43355 35V5C1.43355 3.88609 1.87604 2.8178 2.6637 2.03015C3.45135 1.2425 4.51964 0.8 5.63354 0.8H130.634ZM130.634 0H5.63354C2.88354 0 0.633545 2.25 0.633545 5V35C0.633545 37.75 2.88354 40 5.63354 40H130.634C133.384 40 135.634 37.75 135.634 35V5C135.634 2.25 133.384 0 130.634 0Z" fill="#A6A6A6"/>
<path d="M48.0537 10.2404C48.0537 11.0804 47.8037 11.7504 47.3037 12.2404C46.7437 12.8304 46.0137 13.1304 45.1037 13.1304C44.2337 13.1304 43.4937 12.8304 42.8937 12.2304C42.2937 11.6304 41.9937 10.8804 41.9937 10.0004C41.9937 9.12035 42.2937 8.37035 42.8937 7.77035C43.4937 7.17035 44.2337 6.86035 45.1037 6.86035C45.5437 6.86035 45.9637 6.94035 46.3537 7.09035C46.7437 7.25035 47.0637 7.47035 47.3137 7.75035L46.7637 8.30035C46.5837 8.08035 46.3437 7.90035 46.0437 7.78035C45.7472 7.65138 45.4269 7.58663 45.1037 7.59035C44.4537 7.59035 43.8937 7.82035 43.4437 8.27035C42.9937 8.73035 42.7737 9.30035 42.7737 9.99035C42.7737 10.6804 42.9937 11.2503 43.4437 11.7104C43.8937 12.1603 44.4437 12.3904 45.1037 12.3904C45.7037 12.3904 46.1937 12.2204 46.5937 11.8904C46.9937 11.5604 47.2237 11.0904 47.2837 10.5104H45.1037V9.79035H48.0137C48.0337 9.95035 48.0537 10.1004 48.0537 10.2404ZM52.6637 7.00035V7.74035H49.9337V9.64035H52.3937V10.3604H49.9337V12.2604H52.6637V13.0004H49.1637V7.00035H52.6637ZM55.9137 7.74035V13.0004H55.1437V7.74035H53.4637V7.00035H57.5837V7.74035H55.9137ZM61.3437 13.0004H60.5737V7.00035H61.3437V13.0004ZM64.7637 7.74035V13.0004H63.9937V7.74035H62.3137V7.00035H66.4337V7.74035H64.7637ZM75.1237 10.0004C75.1237 10.8904 74.8237 11.6304 74.2337 12.2304C73.6337 12.8304 72.9037 13.1304 72.0337 13.1304C71.1637 13.1304 70.4337 12.8304 69.8337 12.2304C69.2437 11.6304 68.9437 10.8904 68.9437 10.0004C68.9437 9.11035 69.2437 8.37035 69.8337 7.77035C70.4237 7.17035 71.1537 6.86035 72.0337 6.86035C72.9037 6.86035 73.6337 7.16035 74.2337 7.77035C74.8337 8.38035 75.1237 9.12035 75.1237 10.0004ZM69.7437 10.0004C69.7437 10.6904 69.9637 11.2704 70.3937 11.7204C70.8337 12.1704 71.3837 12.4004 72.0337 12.4004C72.6837 12.4004 73.2337 12.1704 73.6637 11.7204C74.1037 11.2704 74.3237 10.7004 74.3237 10.0004C74.3237 9.30035 74.1037 8.73035 73.6637 8.28035C73.2237 7.83035 72.6837 7.60035 72.0337 7.60035C71.3837 7.60035 70.8337 7.83035 70.3937 8.28035C69.9637 8.73035 69.7437 9.31035 69.7437 10.0004ZM76.9737 13.0004H76.2037V7.00035H77.1437L80.0637 11.6704H80.0937L80.0637 10.5104V7.00035H80.8337V13.0004H80.0337L76.9837 8.11035H76.9537L76.9837 9.27035V13.0004H76.9737Z" fill="white" stroke="white" stroke-width="0.2" stroke-miterlimit="10"/>
<path d="M68.7736 21.7503C66.4236 21.7503 64.5036 23.5403 64.5036 26.0003C64.5036 28.4503 66.4236 30.2503 68.7736 30.2503C71.1236 30.2503 73.0436 28.4503 73.0436 26.0003C73.0436 23.5403 71.1236 21.7503 68.7736 21.7503ZM68.7736 28.5803C67.4836 28.5803 66.3736 27.5203 66.3736 26.0003C66.3736 24.4703 67.4836 23.4203 68.7736 23.4203C70.0636 23.4203 71.1736 24.4703 71.1736 26.0003C71.1736 27.5203 70.0536 28.5803 68.7736 28.5803ZM59.4536 21.7503C57.1036 21.7503 55.1836 23.5403 55.1836 26.0003C55.1836 28.4503 57.1036 30.2503 59.4536 30.2503C61.8036 30.2503 63.7236 28.4503 63.7236 26.0003C63.7236 23.5403 61.8036 21.7503 59.4536 21.7503ZM59.4536 28.5803C58.1636 28.5803 57.0536 27.5203 57.0536 26.0003C57.0536 24.4703 58.1636 23.4203 59.4536 23.4203C60.7436 23.4203 61.8536 24.4703 61.8536 26.0003C61.8536 27.5203 60.7436 28.5803 59.4536 28.5803ZM48.3736 23.0603V24.8603H52.6936C52.5636 25.8703 52.2236 26.6203 51.7136 27.1303C51.0836 27.7603 50.1036 28.4503 48.3836 28.4503C45.7236 28.4503 43.6436 26.3103 43.6436 23.6503C43.6436 20.9903 45.7236 18.8503 48.3836 18.8503C49.8136 18.8503 50.8636 19.4103 51.6336 20.1403L52.9036 18.8703C51.8236 17.8403 50.3936 17.0503 48.3736 17.0503C44.7336 17.0503 41.6736 20.0103 41.6736 23.6603C41.6736 27.3003 44.7336 30.2703 48.3736 30.2703C50.3436 30.2703 51.8236 29.6303 52.9836 28.4203C54.1736 27.2303 54.5436 25.5503 54.5436 24.2003C54.5436 23.7803 54.5136 23.3903 54.4436 23.0703H48.3736V23.0603ZM93.6836 24.4603C93.3336 23.5103 92.2536 21.7503 90.0436 21.7503C87.8536 21.7503 86.0336 23.4703 86.0336 26.0003C86.0336 28.3803 87.8336 30.2503 90.2536 30.2503C92.2036 30.2503 93.3336 29.0603 93.7936 28.3703L92.3436 27.4003C91.8636 28.1103 91.2036 28.5803 90.2536 28.5803C89.3036 28.5803 88.6236 28.1503 88.1936 27.2903L93.8836 24.9403L93.6836 24.4603ZM87.8836 25.8803C87.8336 24.2403 89.1536 23.4003 90.1036 23.4003C90.8436 23.4003 91.4736 23.7703 91.6836 24.3003L87.8836 25.8803ZM83.2636 30.0003H85.1336V17.5003H83.2636V30.0003ZM80.2036 22.7003H80.1336C79.7136 22.2003 78.9136 21.7503 77.8936 21.7503C75.7636 21.7503 73.8136 23.6203 73.8136 26.0203C73.8136 28.4003 75.7636 30.2603 77.8936 30.2603C78.9036 30.2603 79.7136 29.8103 80.1336 29.2903H80.1936V29.9003C80.1936 31.5303 79.3236 32.4003 77.9236 32.4003C76.7836 32.4003 76.0736 31.5803 75.7836 30.8903L74.1536 31.5703C74.6236 32.7003 75.8636 34.0803 77.9236 34.0803C80.1136 34.0803 81.9636 32.7903 81.9636 29.6503V22.0103H80.1936V22.7003H80.2036ZM78.0536 28.5803C76.7636 28.5803 75.6836 27.5003 75.6836 26.0203C75.6836 24.5203 76.7636 23.4303 78.0536 23.4303C79.3236 23.4303 80.3236 24.5303 80.3236 26.0203C80.3336 27.5003 79.3336 28.5803 78.0536 28.5803ZM102.444 17.5003H97.9736V30.0003H99.8436V25.2603H102.454C104.524 25.2603 106.554 23.7603 106.554 21.3803C106.544 19.0003 104.504 17.5003 102.444 17.5003ZM102.484 23.5203H99.8336V19.2303H102.484C103.884 19.2303 104.674 20.3903 104.674 21.3703C104.674 22.3503 103.884 23.5203 102.484 23.5203ZM114.024 21.7303C112.674 21.7303 111.274 22.3303 110.694 23.6403L112.354 24.3303C112.704 23.6403 113.364 23.4103 114.054 23.4103C115.014 23.4103 116.004 23.9903 116.014 25.0203V25.1503C115.674 24.9603 114.954 24.6703 114.064 24.6703C112.274 24.6703 110.464 25.6503 110.464 27.4803C110.464 29.1503 111.924 30.2303 113.564 30.2303C114.814 30.2303 115.514 29.6703 115.944 29.0103H116.004V29.9703H117.804V25.1803C117.814 22.9703 116.154 21.7303 114.024 21.7303ZM113.794 28.5803C113.184 28.5803 112.334 28.2703 112.334 27.5203C112.334 26.5603 113.394 26.1903 114.314 26.1903C115.134 26.1903 115.524 26.3703 116.014 26.6103C115.944 27.1515 115.681 27.6493 115.273 28.0115C114.865 28.3737 114.339 28.5758 113.794 28.5803ZM124.374 22.0003L122.234 27.4203H122.174L119.954 22.0003H117.944L121.274 29.5803L119.374 33.7903H121.324L126.454 22.0003H124.374ZM107.574 30.0003H109.444V17.5003H107.574V30.0003Z" fill="white"/>
<path d="M21.3536 19.4199L10.7036 30.7199V30.7299C10.8189 31.158 11.0314 31.5536 11.3248 31.886C11.6182 32.2183 11.9844 32.4784 12.3948 32.6458C12.8053 32.8133 13.2489 32.8837 13.691 32.8514C14.1331 32.8192 14.5618 32.6852 14.9436 32.4599L14.9736 32.4399L26.9536 25.5299L21.3536 19.4199Z" fill="#EA4335"/>
<path d="M32.1235 17.5002L32.1135 17.4902L26.9435 14.4902L21.1135 19.6802L26.9635 25.5302L32.1135 22.5602C32.569 22.3136 32.9496 21.9488 33.2152 21.504C33.4808 21.0593 33.6215 20.5512 33.6225 20.0332C33.6235 19.5152 33.4848 19.0066 33.221 18.5608C32.9572 18.115 32.5781 17.7486 32.1235 17.5002Z" fill="#FBBC04"/>
<path d="M10.7035 9.27979C10.6435 9.51979 10.6035 9.75978 10.6035 10.0198V29.9898C10.6035 30.2498 10.6335 30.4898 10.7035 30.7298L21.7135 19.7198L10.7035 9.27979Z" fill="#4285F4"/>
<path d="M21.4336 20.0001L26.9436 14.4901L14.9736 7.55008C14.591 7.32128 14.1606 7.18414 13.7161 7.14941C13.2716 7.11467 12.8251 7.18328 12.4115 7.34986C11.998 7.51644 11.6286 7.77648 11.3323 8.10961C11.036 8.44274 10.8208 8.83993 10.7036 9.27009L21.4336 20.0001Z" fill="#34A853"/>
</g>
<defs>
<clipPath id="clip0_123_1788">
<rect width="135.667" height="40" fill="white"/>
</clipPath>
</defs>
</svg>
