<svg width="39" height="39" viewBox="0 0 39 39" fill="none" xmlns="http://www.w3.org/2000/svg">
<rect width="38.8837" height="38.8837" rx="6.48062" fill="#1B2B38"/>
<g clip-path="url(#clip0_1181_1945)">
<path d="M23.6948 19.1383C23.6948 18.4602 23.3193 17.8745 22.7701 17.561C23.295 17.4274 23.6948 16.9705 23.6948 16.4042C23.6948 16.211 23.6462 16.03 23.5623 15.8732C23.2549 14.8052 22.5635 13.9157 21.6437 13.3665H17.2401C16.319 13.9157 15.6288 14.8052 15.3202 15.8732C15.2376 16.0312 15.189 16.2123 15.189 16.4042C15.189 16.9693 15.5887 17.4262 16.1137 17.5598C15.5644 17.8745 15.189 18.4602 15.189 19.1383C15.189 19.8175 15.5644 20.402 16.1149 20.7167C15.5875 20.8491 15.189 21.3048 15.189 21.8723V27.9479C15.189 28.6186 15.7333 29.163 16.4041 29.163H22.4797C23.1504 29.163 23.6948 28.6186 23.6948 27.9479V21.8723C23.6948 21.3036 23.2962 20.8479 22.7689 20.7155C23.3193 20.402 23.6948 19.8175 23.6948 19.1383Z" fill="#FDC65C"/>
<path d="M21.2646 9.72095H17.6193C17.2839 9.72095 17.0117 9.99313 17.0117 10.3285V11.5436C17.0117 11.879 17.2839 12.1512 17.6193 12.1512H21.2646C21.6 12.1512 21.8722 11.879 21.8722 11.5436V10.3285C21.8722 9.99313 21.6 9.72095 21.2646 9.72095Z" fill="#FDC65C"/>
</g>
<defs>
<clipPath id="clip0_1181_1945">
<rect width="19.4419" height="19.4419" fill="white" transform="translate(9.72095 9.72095)"/>
</clipPath>
</defs>
</svg>
