<svg width="39" height="39" viewBox="0 0 39 39" fill="none" xmlns="http://www.w3.org/2000/svg">
<rect width="38.8837" height="38.8837" rx="6.48062" fill="#1B2B38"/>
<path d="M19.2769 10.3191C15.7836 10.3191 12.9414 13.1612 12.9414 16.6546C12.9414 21.0454 19.2832 28.5458 19.2832 28.5458C19.2832 28.5458 25.6125 20.8295 25.6125 16.6546C25.6125 13.1612 22.7704 10.3191 19.2769 10.3191ZM21.1885 18.5097C20.6614 19.0366 19.9692 19.3002 19.2769 19.3002C18.5848 19.3002 17.8924 19.0366 17.3655 18.5097C16.3114 17.4557 16.3114 15.7407 17.3655 14.6867C17.8759 14.176 18.5548 13.8948 19.2769 13.8948C19.999 13.8948 20.6779 14.1761 21.1885 14.6867C22.2426 15.7407 22.2426 17.4557 21.1885 18.5097Z" fill="#FDC65C"/>
</svg>
