<svg width="39" height="39" viewBox="0 0 39 39" fill="none" xmlns="http://www.w3.org/2000/svg">
<rect width="38.8837" height="38.8837" rx="6.48062" fill="#1B2B38"/>
<g clip-path="url(#clip0_1181_1955)">
<path d="M26.2369 19.6191L26.2365 19.6187L22.6699 16.3495C22.2814 15.9934 21.822 15.7421 21.331 15.5824C22.1458 14.9933 22.6822 14.0413 22.6822 12.9613C22.6821 11.1746 21.2285 9.72095 19.4418 9.72095C17.6551 9.72095 16.2015 11.1746 16.2015 12.9612C16.2015 14.0413 16.7379 14.9933 17.5527 15.5824C17.0616 15.742 16.6023 15.9933 16.2138 16.3495L12.6467 19.6191C12.3319 19.9082 12.1511 20.3192 12.1511 20.7468C12.1511 21.5905 12.8378 22.2772 13.7104 22.2772C14.113 22.2772 14.5074 22.1138 14.7922 21.829L16.2443 20.3769C16.2902 20.8714 16.3728 21.3504 16.4915 21.8104L15.0327 23.8356C14.4659 24.5911 14.4374 25.6262 14.9611 26.4122L16.3617 28.5129C16.6327 28.9199 17.0864 29.1628 17.5788 29.1628C18.3826 29.1628 19.0368 28.5086 19.0368 27.7048V27.5071C19.0368 27.1776 18.9233 26.854 18.7176 26.5961L17.5887 25.1856L18.2256 24.7082C18.9961 25.2453 19.8877 25.2453 20.6582 24.7082L21.2946 25.1856L20.1661 26.5965C19.9604 26.854 19.8469 27.1775 19.8469 27.507V27.7048C19.8469 28.5085 20.5011 29.1628 21.3085 29.1628C21.7974 29.1628 22.2511 28.9199 22.5216 28.5133L23.9385 26.388C24.4527 25.6171 24.4246 24.6005 23.8732 23.8648L22.3923 21.8099C22.5109 21.3503 22.5936 20.8713 22.6395 20.3769L24.0915 21.8289C24.3763 22.1137 24.7707 22.2771 25.2022 22.2771C26.0459 22.2771 26.7326 21.5904 26.7326 20.7467C26.7325 20.3192 26.5518 19.9082 26.2369 19.6191ZM19.4418 24.3023C18.5969 24.3023 17.7869 23.3447 17.3482 21.8721H21.5355C21.0968 23.3447 20.2867 24.3023 19.4418 24.3023Z" fill="#FDC65C"/>
</g>
<defs>
<clipPath id="clip0_1181_1955">
<rect width="19.4419" height="19.4419" fill="white" transform="translate(9.72095 9.72095)"/>
</clipPath>
</defs>
</svg>
