<svg width="39" height="39" viewBox="0 0 39 39" fill="none" xmlns="http://www.w3.org/2000/svg">
<rect width="38.8837" height="38.8837" rx="6.48062" fill="#1B2B38"/>
<g clip-path="url(#clip0_1181_1962)">
<path d="M21.4533 14.0694C22.3522 14.633 22.9826 15.5868 23.0973 16.6939C23.4639 16.8652 23.8708 16.9637 24.3022 16.9637C25.8771 16.9637 27.1536 15.6873 27.1536 14.1126C27.1536 12.5377 25.8771 11.2612 24.3022 11.2612C22.7424 11.2617 21.477 12.5154 21.4533 14.0694ZM19.5853 19.9076C21.1602 19.9076 22.4366 18.6308 22.4366 17.0562C22.4366 15.4815 21.1599 14.205 19.5853 14.205C18.0106 14.205 16.7334 15.4818 16.7334 17.0564C16.7334 18.6311 18.0106 19.9076 19.5853 19.9076ZM20.7948 20.1019H18.3753C16.3622 20.1019 14.7244 21.7399 14.7244 23.753V26.7118L14.732 26.7582L14.9358 26.822C16.8569 27.4223 18.526 27.6224 19.8997 27.6224C22.583 27.6224 24.1382 26.8574 24.234 26.8087L24.4245 26.7123H24.4449V23.753C24.4456 21.7399 22.8079 20.1019 20.7948 20.1019ZM25.5122 17.1583H23.1114C23.0854 18.1189 22.6754 18.9839 22.0268 19.606C23.8162 20.1381 25.1255 21.7974 25.1255 23.7574V24.6692C27.4959 24.5823 28.8619 23.9105 28.952 23.8653L29.1424 23.7688H29.1628V20.8089C29.1628 18.7961 27.5251 17.1583 25.5122 17.1583ZM14.582 16.9642C15.1398 16.9642 15.6588 16.8014 16.0985 16.5241C16.2382 15.6125 16.7269 14.816 17.4249 14.2735C17.4278 14.2201 17.4329 14.1672 17.4329 14.1133C17.4329 12.5384 16.1562 11.262 14.582 11.262C13.0069 11.262 11.7306 12.5384 11.7306 14.1133C11.7306 15.6875 13.0069 16.9642 14.582 16.9642ZM17.1427 19.606C16.4973 18.987 16.0887 18.1267 16.0589 17.1719C15.9699 17.1654 15.8818 17.1583 15.791 17.1583H13.3718C11.3587 17.1583 9.72095 18.7961 9.72095 20.8089V23.7683L9.72847 23.8139L9.93228 23.8782C11.4735 24.3593 12.8489 24.5811 14.0436 24.651V23.7574C14.0441 21.7974 15.3529 20.1385 17.1427 19.606Z" fill="#FDC65C"/>
</g>
<defs>
<clipPath id="clip0_1181_1962">
<rect width="19.4419" height="19.4419" fill="white" transform="translate(9.72095 9.72095)"/>
</clipPath>
</defs>
</svg>
