<svg width="39" height="39" viewBox="0 0 39 39" fill="none" xmlns="http://www.w3.org/2000/svg">
<rect width="38.8837" height="38.8837" rx="6.48062" fill="#1B2B38"/>
<g clip-path="url(#clip0_1181_1968)">
<path d="M21.948 11.2019C21.948 11.0135 22.1013 10.8601 22.2898 10.8601H24.2643C24.4528 10.8601 24.6061 11.0135 24.6061 11.2019V13.2378H25.7452V11.2019C25.7452 10.3853 25.0809 9.72095 24.2643 9.72095H22.2898C21.4732 9.72095 20.8088 10.3853 20.8088 11.2019V13.2378H21.948V11.2019Z" fill="#FDC65C"/>
<path d="M16.6448 28.0237C16.3959 27.637 16.2522 27.1792 16.2522 26.6947V18.1553H11.05C10.3172 18.1553 9.72095 18.7515 9.72095 19.4843V26.6947C9.72095 27.363 10.2169 27.9175 10.8601 28.0099V28.5932C10.8601 28.9077 11.1151 29.1627 11.4297 29.1627C11.7443 29.1627 11.9993 28.9077 11.9993 28.5932V28.0237H16.6448V28.0237ZM11.9993 20.2438C11.9993 19.9292 12.2543 19.6742 12.5689 19.6742C12.8834 19.6742 13.1385 19.9292 13.1385 20.2438V25.9352C13.1385 26.2498 12.8834 26.5048 12.5689 26.5048C12.2543 26.5048 11.9993 26.2498 11.9993 25.9352V20.2438Z" fill="#FDC65C"/>
<path d="M15.0371 16.1194C15.0371 15.9309 15.1905 15.7776 15.3789 15.7776H16.2522V15.706C16.2522 15.3238 16.3396 14.9617 16.4953 14.6384H15.3789C14.5623 14.6384 13.8979 15.3028 13.8979 16.1194V17.0161H15.0371V16.1194Z" fill="#FDC65C"/>
<path d="M27.8338 14.377H18.7204C17.9876 14.377 17.3914 14.9732 17.3914 15.706V26.6946C17.3914 27.363 17.8873 27.9174 18.5305 28.0099V28.5931C18.5305 28.9077 18.7856 29.1627 19.1001 29.1627C19.4147 29.1627 19.6697 28.9077 19.6697 28.5931V28.0236H26.8845V28.5931C26.8845 28.9077 27.1395 29.1627 27.454 29.1627C27.7686 29.1627 28.0236 28.9077 28.0236 28.5931V28.0099C28.6668 27.9174 29.1628 27.363 29.1628 26.6946V15.706C29.1628 14.9731 28.5666 14.377 27.8338 14.377ZM20.8089 25.9352C20.8089 26.2497 20.5538 26.5048 20.2393 26.5048C19.9247 26.5048 19.6697 26.2497 19.6697 25.9352V16.4654C19.6697 16.1509 19.9247 15.8958 20.2393 15.8958C20.5538 15.8958 20.8089 16.1509 20.8089 16.4654V25.9352ZM26.3149 26.5048C26.0003 26.5048 25.7453 26.2497 25.7453 25.9352V16.4654C25.7453 16.1509 26.0003 15.8958 26.3149 15.8958C26.6294 15.8958 26.8845 16.1509 26.8845 16.4654V25.9352C26.8845 26.2497 26.6294 26.5048 26.3149 26.5048Z" fill="#FDC65C"/>
</g>
<defs>
<clipPath id="clip0_1181_1968">
<rect width="19.4419" height="19.4419" fill="white" transform="translate(9.72095 9.72095)"/>
</clipPath>
</defs>
</svg>
